<svg width="32" height="32" viewBox="0 0 32 32" fill="none" xmlns="http://www.w3.org/2000/svg">
<path d="M15.9794 32C7.1835 32 0 26.8451 0 16C0 5.15492 7.31546 0 15.7072 0H15.9753C24.8165 0.135872 32 5.15492 32 16C32 26.8451 24.8165 32 15.9753 32H15.9794ZM15.9753 1.684H15.6948C9.49691 1.684 2.85361 6.82656 2.85361 16.0041C2.85361 25.1817 9.33196 30.3242 15.9753 30.3242C23.1216 30.3242 29.1505 25.0623 29.1505 16.0041C29.1505 6.94596 22.7299 1.684 15.9753 1.684Z" fill="#3A8EBA"/>
<path d="M13.9462 5.56275C13.9009 5.59984 13.905 5.58336 13.872 5.59572C13.7936 5.61633 13.6287 5.66579 13.5462 5.69052C12.6761 5.96254 11.9256 6.49423 11.204 7.03828L11.2287 6.95173C11.3235 7.17429 11.0844 7.30618 10.9607 7.45044C10.8741 7.54112 10.8369 7.56172 10.8617 7.61942C10.9277 7.76368 11.0761 7.92854 11.2081 8.06456L11.6163 8.50145C11.7772 8.64158 11.971 8.92597 11.7689 9.14442V9.01253C13.0761 10.4386 14.3256 11.9224 15.5833 13.3979C15.8885 13.7565 16.7009 14.7086 16.9978 15.0589C17.3483 15.4134 19.1586 17.2475 19.5462 17.6349C21.3524 19.3 22.5895 21.4144 24.2596 23.1661C24.6473 23.5947 25.072 23.9286 25.4802 24.2913C25.5421 24.3655 25.604 24.4809 25.6081 24.6087C25.5916 25.0373 25.3978 25.1032 25.2576 25.4165C25.0019 26.0265 23.8101 26.2161 23.538 26.2779C23.1215 26.4469 22.8163 26.0265 22.6967 25.7132C22.404 24.6457 21.7277 23.9574 20.9483 23.1908C19.4802 21.5834 18.1071 19.9595 16.738 18.249C14.8947 16.0563 12.7627 13.6246 10.8617 11.4319C10.6514 11.1887 10.2349 10.6941 10.0328 10.4427L10.6761 10.4139C10.6101 10.4963 10.5895 10.5045 10.5483 10.5334C9.77303 10.9291 9.34829 9.70907 8.91118 9.41232C8.8287 9.43293 8.57303 9.65549 8.50705 9.73381C8.44107 9.79563 8.44932 9.84509 8.46169 9.73381C8.46169 9.68435 8.43695 9.61428 8.40396 9.58543L8.4287 9.61428C8.87406 10.1707 8.16478 10.6364 7.84726 10.9826L7.65345 11.1764C7.37716 11.5432 6.85757 11.3989 6.63076 11.1516L6.41221 10.9373C5.72767 10.2655 5.22458 9.91515 6.16479 9.13205L6.6019 8.71577L6.57716 8.74462C6.80808 8.48496 7.0885 8.44786 7.37303 8.41077C7.50499 8.36131 7.60808 8.22118 7.69056 8.10165C7.73592 8.0151 7.72355 8.02746 7.73592 7.8626C7.74417 7.7472 7.79365 7.60706 7.86375 7.51226C8.76272 6.40767 10.0411 5.84302 11.3565 5.49268C11.9957 5.31133 12.639 5.13822 13.2988 5.03518C13.6205 5.00221 13.8555 5.24951 13.9421 5.55038L13.9462 5.56275ZM13.872 5.52565C13.8019 5.48856 13.7318 5.31957 13.6452 5.26599C13.5627 5.18768 13.4101 5.17532 13.3277 5.1918C12.0823 5.52153 10.7875 5.92133 9.68231 6.5643C9.14623 6.8899 8.63076 7.33091 8.28437 7.79665C8.21015 7.92854 8.28437 8.00273 8.22252 8.20881C8.15241 8.41489 8.03282 8.57563 7.88025 8.73638C7.76478 8.85178 7.59159 8.95482 7.41839 8.98367C7.25757 8.99604 7.11736 9.03725 7.03901 9.13205C6.89056 9.30516 6.39571 9.77502 6.29262 9.92752C6.29262 9.93576 6.30087 9.91103 6.29262 9.8863C6.29262 9.86157 6.28437 9.86569 6.30087 9.8863C6.37509 9.99759 6.76685 10.3562 6.87819 10.4551C6.94004 10.5004 7.13386 10.7147 7.19159 10.7189C7.19159 10.7189 7.12973 10.7106 7.09674 10.7642C7.31942 10.5087 7.66169 10.1831 7.85138 9.944C7.85138 9.93576 7.82664 10.0058 7.84314 10.0594C7.85963 10.1089 7.85551 10.0841 7.83077 10.0553L7.85551 10.0841C7.78128 10.0017 7.72767 9.86982 7.72767 9.75441C7.72355 9.53597 7.84726 9.3711 7.95447 9.24333C8.24313 8.96307 8.37097 8.75286 8.82045 8.65395C9.61221 8.57976 9.85138 9.44117 10.3503 9.81211C10.2431 9.77502 10.1029 9.81211 10.0205 9.93164L10.6638 9.90279C12.9235 12.5365 15.1957 15.0548 17.373 17.7915C18.6596 19.4608 20.0328 21.1548 21.439 22.7457C22.1895 23.4793 23.0184 24.4232 23.2741 25.4865C23.3153 25.5896 23.3565 25.6761 23.4101 25.7256C23.3648 25.7215 23.3854 25.705 23.2947 25.738C23.5421 25.6679 23.8019 25.6226 24.0452 25.5484C24.2637 25.4866 24.5029 25.4082 24.6143 25.3258C24.7545 25.2186 24.8534 24.9631 24.973 24.8106C25.039 24.7199 25.0679 24.6334 25.0596 24.6499C25.072 24.6746 25.0514 24.621 24.973 24.5674C22.6967 22.6797 21.3813 19.9389 19.2534 17.9358L17.2411 15.8255C16.9648 15.5494 16.5194 15.0424 16.2802 14.7333C14.7462 12.8703 13.2205 10.9538 11.6287 9.14029C11.5421 9.02901 11.7277 8.96719 11.6534 8.8353C11.3978 8.45199 10.9235 8.1099 10.7174 7.67301C10.6555 7.55348 10.7792 7.4051 10.8617 7.34328C10.8906 7.30618 11.1091 7.13308 11.1091 7.0795C11.1215 7.02591 11.072 6.96409 11.1256 6.927C11.5504 6.61788 11.9833 6.32524 12.4369 6.06558C12.8823 5.81417 13.3648 5.63694 13.8555 5.51741L13.8802 5.51329C13.8844 5.51741 13.9091 5.49268 13.8802 5.52977L13.872 5.52565Z" fill="#EFEFED"/>
<path d="M23.6917 6.68763L23.704 6.84837C23.7082 7.05857 23.77 7.2358 23.704 7.26877L23.1927 7.49958L23.2257 7.45012L23.2669 8.00654C23.2669 8.03127 23.2545 8.056 23.2339 8.06424L22.7226 8.29505L22.7597 8.23323L22.8009 8.78964C22.8009 8.81849 22.7844 8.84735 22.7597 8.85971L22.2484 9.09052L22.2937 9.01633L22.335 9.57274C22.335 9.60572 22.3143 9.63869 22.2855 9.65106L21.7741 9.88186L21.8277 9.79531L21.869 10.3517C21.869 10.3929 21.8484 10.4259 21.8113 10.4424L21.2999 10.6732L21.3576 10.5784L21.3989 11.1348C21.3989 11.1802 21.3741 11.2214 21.337 11.2379L20.8257 11.4687L20.8917 11.3615L20.9329 11.9179C20.9329 11.9674 20.9082 12.0127 20.8628 12.0333L20.3515 12.2642L20.4257 12.1446L20.4669 12.701C20.4669 12.7546 20.4381 12.8041 20.3886 12.8247L19.8772 13.0555L19.9556 12.9236L19.9968 13.48C20.0009 13.5418 19.968 13.5954 19.9143 13.616L19.403 13.8468L19.4896 13.7067L19.5308 14.2631C19.535 14.3291 19.4978 14.3868 19.4401 14.4115L18.9288 14.6423L19.0236 14.4898L19.0649 15.0462C19.069 15.1163 19.0319 15.1781 18.97 15.2028C18.97 15.2028 18.4587 15.4337 18.4545 15.4337L18.5535 15.2688L18.5948 15.8252C18.5989 15.8994 18.5576 15.9695 18.4917 15.9942L17.9803 16.225L18.0875 16.0478L18.1288 16.6042C18.1329 16.6825 18.0875 16.7526 18.0216 16.7855C18.0216 16.7855 17.5102 17.0163 17.5061 17.0163L17.6216 16.8309L17.6628 17.3873C17.6669 17.4738 17.6174 17.548 17.5432 17.581L17.0319 17.8118L17.1515 17.614L17.1927 18.1704C17.2009 18.2611 17.1473 18.3394 17.069 18.3724L16.5576 18.599L16.6855 18.393L16.7226 18.9494C16.7308 19.0442 16.6731 19.1266 16.5948 19.1596L16.0834 19.3863L16.2154 19.1719L16.2525 19.7284C16.2607 19.8232 16.203 19.9097 16.1205 19.9468C16.1205 19.9468 15.6092 20.1735 15.6051 20.1776L15.7411 19.9509L15.7783 20.5073C15.7865 20.6063 15.7246 20.6969 15.6381 20.7381L15.1267 20.9648L15.271 20.7299L15.3082 21.2863C15.3164 21.3894 15.2545 21.4842 15.1638 21.5254L14.6525 21.7521L14.8009 21.5089L14.8381 22.0653C14.8463 22.1725 14.7844 22.2714 14.6896 22.3126L14.1783 22.5393L14.3308 22.2879L14.3679 22.8443C14.3762 22.9556 14.3102 23.0545 14.2154 23.0957C14.2154 23.0957 13.704 23.3224 13.6999 23.3265L13.8566 23.0669L13.8937 23.6233C13.902 23.7387 13.836 23.8417 13.737 23.8829C13.737 23.8829 13.2257 24.1096 13.2216 24.1137L13.3865 23.8458L13.4236 24.4023C13.4319 24.5218 13.3618 24.6289 13.2587 24.6743L12.7473 24.901L12.9123 24.6866L12.8174 25.309C12.7927 25.5068 12.5535 25.6181 12.3844 25.511C12.3803 25.511 11.8937 25.206 11.8896 25.206C11.7824 25.1441 11.5844 25.0123 11.4772 24.9545C11.469 24.9463 11.4442 24.9422 11.4978 24.9545C11.5143 24.9628 11.6381 24.9587 11.6917 24.9092C11.7329 24.8762 11.7205 24.8845 11.7123 24.8968C11.1391 25.5275 10.4174 26.3518 9.85661 26.9906C9.62568 27.2626 9.32053 27.6047 8.91228 27.411C8.69785 27.2832 8.63599 27.2214 8.54527 26.9865C8.48341 26.8093 8.59063 26.5785 8.65249 26.4795C8.66486 26.4548 8.68547 26.426 8.67723 26.4218C8.68135 26.393 8.68547 26.4631 8.6731 26.4218C8.49166 26.2075 8.07517 25.8943 7.88548 25.6181C7.44836 25.0782 7.20094 24.4435 6.97001 23.8046C6.95352 23.784 6.94527 23.784 6.94115 23.7799C6.93702 23.7799 6.92053 23.7799 6.89166 23.7881C6.87516 23.7964 6.86692 23.8005 6.83393 23.817C6.1164 24.2498 5.32052 23.3512 5.9432 22.7495C6.31846 22.3373 7.65042 20.8371 8.05042 20.3961C8.17826 20.2642 8.83805 19.4769 8.96176 19.3821C9.04836 19.308 9.18857 19.2544 9.30815 19.2667C9.51846 19.2915 9.60919 19.3904 9.50197 19.3244C9.42774 19.2791 9.21743 19.3038 9.16383 19.3615C9.13496 19.3863 9.13496 19.3863 9.15558 19.3615L9.25042 19.2544C11.9185 16.2456 14.6649 13.3028 17.403 10.3517C18.4999 9.21417 21.069 6.43621 22.1494 5.34399C22.8092 4.61447 23.6917 5.85919 24.1865 6.25898C24.2154 6.28783 24.2113 6.34141 24.1741 6.36202L23.6587 6.64641L23.6917 6.68763ZM23.6174 6.65053L24.137 6.28783L24.1288 6.39499C23.7659 6.16006 22.7556 5.03899 22.4092 5.58716C21.4442 6.74945 18.9411 9.63457 17.9185 10.8257C15.2339 13.8881 12.5618 16.9628 9.80712 19.9633C9.7164 20.0993 9.41537 20.2353 9.22568 20.1364C9.0731 20.0498 9.12671 20.1117 9.28754 20.1364C9.46073 20.1364 9.4896 20.0787 9.50609 20.0746C8.83393 20.833 7.45661 22.3085 6.72671 23.0875L6.52877 23.2977C6.45867 23.376 6.50403 23.3389 6.49991 23.2977C6.49991 23.2441 6.47104 23.2152 6.46692 23.2194C6.5164 23.2111 6.59888 23.1452 6.67723 23.1287C7.18444 22.9432 7.65042 23.3018 7.74939 23.7964C7.91022 24.3033 8.1329 24.8103 8.45042 25.2307C8.75145 25.7047 9.69166 26.1333 9.25042 26.834L9.20094 26.9205C9.20094 26.9288 9.20919 26.8958 9.20094 26.8628C9.18857 26.8299 9.18444 26.8299 9.20094 26.8505C9.2298 26.8835 9.21743 26.867 9.20094 26.8628C9.19269 26.8587 9.18032 26.8587 9.16795 26.8628C9.68754 26.2899 10.7844 25.0782 11.2958 24.5383C11.5143 24.2827 11.7824 24.4682 11.9803 24.6001C12.1329 24.7031 12.5453 24.9587 12.7061 25.0658L12.2731 25.2637L12.3762 24.6454C12.3927 24.5465 12.4587 24.4682 12.5411 24.4311L13.0566 24.2127L12.8917 24.4847L12.8628 23.9283C12.8545 23.8087 12.9246 23.7057 13.0277 23.6604L13.5432 23.4419L13.3824 23.7057L13.3535 23.1452C13.3494 23.0339 13.4154 22.9308 13.5102 22.8896L14.0257 22.6712L13.869 22.9267L13.8401 22.3703C13.8319 22.259 13.8978 22.1601 13.9927 22.1189L14.5082 21.8963L14.3597 22.1436L14.3308 21.5872C14.3226 21.48 14.3844 21.3852 14.4793 21.344L14.9948 21.1256L14.8504 21.3646L14.8216 20.8082C14.8133 20.7052 14.8752 20.6145 14.9659 20.5733L15.4814 20.3507L15.3411 20.5815L15.3123 20.021C15.3082 19.9221 15.3659 19.8355 15.4484 19.7984L15.9638 19.5759L15.8277 19.7943L15.7989 19.2338C15.7948 19.139 15.8484 19.0565 15.9308 19.0194L16.4463 18.7969L16.3185 19.0071L16.2896 18.4507C16.2814 18.36 16.335 18.2776 16.4174 18.2446L16.9329 18.022L16.8092 18.224L16.7803 17.6634C16.7762 17.5769 16.8257 17.5027 16.8999 17.4697L17.4154 17.2513L17.2958 17.445L17.2669 16.8886C17.2628 16.8061 17.3082 16.732 17.3824 16.7031L17.8978 16.4847L17.7865 16.666L17.7576 16.1055C17.7576 16.0272 17.7989 15.9612 17.8649 15.9324L18.3803 15.7139L18.2772 15.8829L18.2484 15.3265C18.2442 15.2523 18.2855 15.1905 18.3473 15.1616L18.8628 14.9432L18.7638 15.1039L18.735 14.5475C18.7308 14.4816 18.7679 14.4197 18.8298 14.395L19.3453 14.1766L19.2545 14.3249L19.2257 13.7644C19.2257 13.7026 19.2587 13.649 19.3123 13.6243L19.8277 13.4058L19.7453 13.5418L19.7164 12.9813C19.7164 12.9236 19.7453 12.8741 19.7948 12.8535L20.3102 12.6351L20.2319 12.7587L20.203 12.2023C20.203 12.1487 20.2319 12.1034 20.2772 12.0828L20.7927 11.8644L20.7226 11.9798L20.6937 11.4192C20.6937 11.3739 20.7185 11.3285 20.7597 11.3121L21.2752 11.0936L21.2133 11.1967L21.1844 10.6361C21.1844 10.5949 21.2092 10.5537 21.2422 10.5413L21.7576 10.3229L21.704 10.4136L21.6752 9.85301C21.6752 9.81592 21.6958 9.78295 21.7288 9.76646L22.2442 9.54802L22.1948 9.62633L22.1659 9.06579C22.1659 9.03282 22.1824 9.00397 22.2112 8.9916L22.7267 8.77316L22.6855 8.84322L22.6566 8.28269C22.6566 8.25383 22.6731 8.2291 22.6937 8.22086L23.2092 8.00242L23.1762 8.06012L23.1473 7.49958C23.1473 7.47897 23.1597 7.45837 23.1803 7.446L23.6958 7.22756L23.6669 7.2729L23.6422 6.69175L23.6174 6.65053Z" fill="#EFEFED"/>
<path d="M9.59599 24.1466C9.75269 24.3939 9.93413 25.0369 10.2888 24.6742C10.4537 24.4763 10.8455 24.1219 10.7506 23.8622C10.6599 23.5943 10.3671 23.2605 10.1692 22.9225C9.8764 22.4897 9.6331 21.9292 9.23723 21.6448C9.163 21.6201 9.19599 21.6448 9.12176 21.6984C9.01042 21.7932 8.9362 21.9086 8.84548 22.0322C8.75063 22.1559 8.62279 22.3702 8.62279 22.3537C8.62279 22.3372 8.61455 22.3043 8.6063 22.2878C9.01455 22.9308 9.24547 23.4666 9.59599 24.1425V24.1466ZM9.52588 24.192C9.15063 23.5778 8.53207 23.2605 8.00424 22.7947C7.86403 22.6587 7.78156 22.4238 7.81042 22.226C8.02486 21.4552 8.83723 20.4908 9.64547 21.0431C10.1774 21.4964 10.3424 22.1106 10.6393 22.667C10.8249 23.1451 11.3321 23.6191 11.1011 24.1837C10.9073 24.4805 10.6723 24.6288 10.3877 24.8226C10.297 24.872 10.1939 24.9297 10.0661 24.9132C9.74444 24.8061 9.71145 24.4269 9.52588 24.1961V24.192Z" fill="#EFEFED"/>
<path d="M22.0617 7.03357C21.9874 7.08303 22.0163 7.19843 22.0946 7.2108C22.173 7.23141 22.2266 7.16958 22.2019 7.14897C22.2266 7.09539 22.3627 6.87283 22.4163 6.7533C22.3751 6.75742 22.3338 6.89756 22.3586 6.94702C22.3668 7.0006 22.4493 7.05418 22.5606 6.99647C22.6101 6.97174 22.6266 6.90168 22.5565 6.93465C22.4039 6.95526 22.173 6.93465 22.0617 7.03357ZM21.9957 6.98411C22.1524 6.73681 21.9008 6.38648 22.2843 6.22162C22.8823 5.9702 23.3318 6.73269 22.9483 7.14897C22.7586 7.3056 22.6678 7.41276 22.3586 7.53228C21.9998 7.61472 21.8431 7.2108 21.9957 6.98411Z" fill="#EFEFED"/>
</svg>
