<svg width="600" height="366" viewBox="0 0 600 366" fill="none" xmlns="http://www.w3.org/2000/svg">
<g clip-path="url(#clip0_361_1755)">
<path d="M130.947 363.376V366H120.756V363.376H130.947ZM121.692 346.805V366H118.383V346.805H121.692ZM129.615 354.82V357.404H120.756V354.82H129.615ZM130.881 346.805V349.441H120.756V346.805H130.881Z" fill="#EFEFED"/>
<path d="M161.296 346.805V366H157.987L149.378 352.25V366H146.069V346.805H149.378L158.014 360.582V346.805H161.296Z" fill="#EFEFED"/>
<path d="M196.802 346.805H203.592C205.051 346.805 206.294 347.024 207.323 347.464C208.351 347.903 209.137 348.554 209.682 349.415C210.236 350.268 210.513 351.322 210.513 352.579C210.513 353.537 210.337 354.381 209.986 355.11C209.634 355.84 209.137 356.455 208.496 356.956C207.854 357.448 207.09 357.831 206.202 358.103L205.2 358.591H199.096L199.07 355.967H203.644C204.435 355.967 205.094 355.827 205.622 355.545C206.149 355.264 206.545 354.882 206.808 354.398C207.081 353.906 207.217 353.353 207.217 352.737C207.217 352.069 207.085 351.489 206.822 350.997C206.567 350.496 206.171 350.114 205.635 349.85C205.099 349.578 204.418 349.441 203.592 349.441H200.111V366H196.802V346.805ZM207.758 366L203.249 357.378L206.716 357.365L211.291 365.829V366H207.758Z" fill="#EFEFED"/>
<path d="M238.793 363.376V366H228.602V363.376H238.793ZM229.538 346.805V366H226.229V346.805H229.538ZM237.461 354.82V357.404H228.602V354.82H237.461ZM238.727 346.805V349.441H228.602V346.805H238.727ZM230.962 345.526L233.533 341.558H237.118L233.533 345.526H230.962Z" fill="#EFEFED"/>
<path d="M268.655 356.191V363.521C268.382 363.882 267.956 364.277 267.376 364.708C266.805 365.13 266.044 365.495 265.095 365.802C264.146 366.11 262.964 366.264 261.549 366.264C260.345 366.264 259.242 366.062 258.24 365.657C257.238 365.244 256.372 364.642 255.642 363.851C254.922 363.06 254.364 362.098 253.968 360.964C253.573 359.821 253.375 358.521 253.375 357.062V355.73C253.375 354.28 253.555 352.988 253.915 351.854C254.285 350.711 254.812 349.745 255.497 348.954C256.183 348.163 257.009 347.565 257.976 347.161C258.952 346.748 260.055 346.541 261.285 346.541C262.858 346.541 264.159 346.805 265.187 347.332C266.225 347.851 267.024 348.571 267.587 349.494C268.149 350.417 268.505 351.472 268.655 352.658H265.412C265.306 351.99 265.1 351.393 264.792 350.865C264.493 350.338 264.062 349.925 263.5 349.626C262.946 349.318 262.225 349.165 261.338 349.165C260.573 349.165 259.901 349.31 259.321 349.6C258.741 349.89 258.257 350.316 257.871 350.878C257.493 351.441 257.207 352.126 257.014 352.935C256.82 353.744 256.724 354.667 256.724 355.704V357.062C256.724 358.116 256.833 359.052 257.053 359.87C257.282 360.687 257.607 361.377 258.029 361.939C258.459 362.502 258.982 362.928 259.598 363.218C260.213 363.5 260.907 363.64 261.681 363.64C262.436 363.64 263.056 363.579 263.539 363.456C264.023 363.324 264.405 363.17 264.686 362.994C264.976 362.81 265.201 362.634 265.359 362.467V358.657H261.364V356.191H268.655Z" fill="#EFEFED"/>
<path d="M288.273 346.805V366H284.964V346.805H288.273Z" fill="#EFEFED"/>
<path d="M320.112 355.875V356.93C320.112 358.38 319.923 359.681 319.545 360.832C319.168 361.983 318.627 362.963 317.924 363.772C317.23 364.581 316.395 365.2 315.419 365.631C314.443 366.053 313.362 366.264 312.176 366.264C310.998 366.264 309.921 366.053 308.946 365.631C307.979 365.2 307.14 364.581 306.428 363.772C305.716 362.963 305.162 361.983 304.767 360.832C304.38 359.681 304.187 358.38 304.187 356.93V355.875C304.187 354.425 304.38 353.128 304.767 351.986C305.153 350.834 305.698 349.854 306.401 349.046C307.113 348.229 307.953 347.609 308.919 347.187C309.895 346.756 310.972 346.541 312.149 346.541C313.336 346.541 314.417 346.756 315.393 347.187C316.368 347.609 317.208 348.229 317.911 349.046C318.614 349.854 319.154 350.834 319.532 351.986C319.919 353.128 320.112 354.425 320.112 355.875ZM316.803 356.93V355.849C316.803 354.776 316.698 353.832 316.487 353.014C316.285 352.188 315.982 351.498 315.577 350.944C315.182 350.382 314.694 349.96 314.114 349.679C313.534 349.389 312.879 349.244 312.149 349.244C311.42 349.244 310.77 349.389 310.198 349.679C309.627 349.96 309.139 350.382 308.735 350.944C308.339 351.498 308.036 352.188 307.825 353.014C307.614 353.832 307.509 354.776 307.509 355.849V356.93C307.509 358.002 307.614 358.951 307.825 359.777C308.036 360.604 308.344 361.302 308.748 361.874C309.161 362.436 309.653 362.862 310.225 363.152C310.796 363.434 311.446 363.574 312.176 363.574C312.914 363.574 313.569 363.434 314.14 363.152C314.711 362.862 315.195 362.436 315.59 361.874C315.986 361.302 316.285 360.604 316.487 359.777C316.698 358.951 316.803 358.002 316.803 356.93Z" fill="#EFEFED"/>
<path d="M351.068 346.805V366H347.759L339.151 352.25V366H335.841V346.805H339.151L347.786 360.582V346.805H351.068Z" fill="#EFEFED"/>
<path d="M401.801 346.805V366H398.492L389.883 352.25V366H386.574V346.805H389.883L398.518 360.582V346.805H401.801Z" fill="#EFEFED"/>
<path d="M425.875 349.362L420.141 366H416.673L423.898 346.805H426.113L425.875 349.362ZM430.674 366L424.926 349.362L424.676 346.805H426.904L434.155 366H430.674ZM430.397 358.881V361.504H419.956V358.881H430.397Z" fill="#EFEFED"/>
<path d="M463.951 346.805V366H460.642L452.033 352.25V366H448.724V346.805H452.033L460.668 360.582V346.805H463.951Z" fill="#EFEFED"/>
<path d="M487.814 346.805V366H484.531V346.805H487.814ZM493.839 346.805V349.441H478.559V346.805H493.839Z" fill="#EFEFED"/>
<path d="M515 349.362L509.265 366H505.797L513.022 346.805H515.237L515 349.362ZM519.798 366L514.05 349.362L513.8 346.805H516.028L523.279 366H519.798ZM519.522 358.881V361.504H509.08V358.881H519.522Z" fill="#EFEFED"/>
<path d="M541.381 346.805V366H538.072V346.805H541.381Z" fill="#EFEFED"/>
<path d="M568.013 361.056C568.013 360.661 567.951 360.309 567.828 360.001C567.714 359.694 567.508 359.413 567.209 359.158C566.91 358.903 566.488 358.657 565.943 358.419C565.407 358.173 564.721 357.923 563.887 357.668C562.972 357.387 562.129 357.075 561.355 356.732C560.591 356.38 559.923 355.976 559.351 355.519C558.78 355.053 558.336 354.521 558.02 353.924C557.703 353.317 557.545 352.619 557.545 351.828C557.545 351.045 557.708 350.333 558.033 349.692C558.367 349.05 558.837 348.497 559.444 348.031C560.059 347.556 560.784 347.191 561.619 346.937C562.454 346.673 563.377 346.541 564.387 346.541C565.811 346.541 567.037 346.805 568.066 347.332C569.103 347.859 569.898 348.567 570.452 349.455C571.014 350.342 571.296 351.322 571.296 352.395H568.013C568.013 351.762 567.877 351.204 567.604 350.72C567.341 350.228 566.936 349.841 566.391 349.56C565.855 349.279 565.174 349.138 564.348 349.138C563.566 349.138 562.915 349.257 562.397 349.494C561.878 349.731 561.491 350.052 561.237 350.457C560.982 350.861 560.854 351.318 560.854 351.828C560.854 352.188 560.938 352.518 561.105 352.816C561.272 353.106 561.527 353.379 561.869 353.634C562.212 353.88 562.643 354.113 563.161 354.333C563.68 354.552 564.291 354.763 564.994 354.965C566.057 355.282 566.985 355.633 567.776 356.02C568.567 356.398 569.226 356.829 569.753 357.312C570.281 357.795 570.676 358.345 570.94 358.96C571.203 359.566 571.335 360.256 571.335 361.03C571.335 361.838 571.173 362.568 570.847 363.218C570.522 363.86 570.056 364.409 569.45 364.866C568.852 365.314 568.132 365.662 567.288 365.908C566.453 366.145 565.521 366.264 564.493 366.264C563.57 366.264 562.66 366.141 561.764 365.895C560.876 365.648 560.068 365.275 559.338 364.774C558.609 364.264 558.029 363.631 557.598 362.875C557.167 362.111 556.952 361.219 556.952 360.199H560.261C560.261 360.823 560.366 361.355 560.577 361.794C560.797 362.234 561.1 362.594 561.487 362.875C561.874 363.148 562.322 363.35 562.832 363.482C563.35 363.614 563.904 363.68 564.493 363.68C565.266 363.68 565.912 363.57 566.431 363.35C566.958 363.13 567.354 362.823 567.617 362.427C567.881 362.032 568.013 361.575 568.013 361.056Z" fill="#EFEFED"/>
<path d="M599.246 363.376V366H589.055V363.376H599.246ZM589.991 346.805V366H586.682V346.805H589.991ZM597.914 354.82V357.404H589.055V354.82H597.914ZM599.18 346.805V349.441H589.055V346.805H599.18Z" fill="#EFEFED"/>
<path d="M13.874 311.751H17.1699C17.0645 313.008 16.7129 314.128 16.1152 315.113C15.5176 316.088 14.6782 316.857 13.5972 317.42C12.5161 317.982 11.2021 318.264 9.65527 318.264C8.46875 318.264 7.40088 318.053 6.45166 317.631C5.50244 317.2 4.68945 316.594 4.0127 315.812C3.33594 315.021 2.81738 314.067 2.45703 312.951C2.10547 311.834 1.92969 310.586 1.92969 309.207V307.611C1.92969 306.231 2.10986 304.983 2.47021 303.867C2.83936 302.751 3.3667 301.797 4.05225 301.006C4.73779 300.207 5.55957 299.596 6.51758 299.174C7.48438 298.752 8.56982 298.541 9.77393 298.541C11.3032 298.541 12.5952 298.822 13.6499 299.385C14.7046 299.947 15.522 300.725 16.1021 301.718C16.6909 302.711 17.0513 303.85 17.1831 305.133H13.8872C13.7993 304.307 13.606 303.599 13.3071 303.01C13.0171 302.421 12.5864 301.973 12.0151 301.666C11.4438 301.349 10.6968 301.191 9.77393 301.191C9.01807 301.191 8.35889 301.332 7.79639 301.613C7.23389 301.894 6.76367 302.307 6.38574 302.852C6.00781 303.397 5.72217 304.069 5.52881 304.869C5.34424 305.66 5.25195 306.565 5.25195 307.585V309.207C5.25195 310.173 5.33545 311.052 5.50244 311.843C5.67822 312.625 5.94189 313.298 6.29346 313.86C6.65381 314.423 7.11084 314.858 7.66455 315.166C8.21826 315.473 8.88184 315.627 9.65527 315.627C10.5957 315.627 11.356 315.478 11.936 315.179C12.5249 314.88 12.9688 314.445 13.2676 313.874C13.5752 313.293 13.7773 312.586 13.874 311.751Z" fill="#EFEFED"/>
<path d="M47.9019 307.875V308.93C47.9019 310.38 47.713 311.681 47.335 312.832C46.9571 313.983 46.4166 314.963 45.7135 315.772C45.0191 316.581 44.1842 317.2 43.2086 317.631C42.233 318.053 41.1519 318.264 39.9654 318.264C38.7877 318.264 37.711 318.053 36.7354 317.631C35.7686 317.2 34.9293 316.581 34.2174 315.772C33.5054 314.963 32.9517 313.983 32.5562 312.832C32.1695 311.681 31.9762 310.38 31.9762 308.93V307.875C31.9762 306.425 32.1695 305.128 32.5562 303.986C32.9429 302.834 33.4879 301.854 34.191 301.046C34.9029 300.229 35.7423 299.609 36.7091 299.187C37.6846 298.756 38.7613 298.541 39.939 298.541C41.1256 298.541 42.2066 298.756 43.1822 299.187C44.1578 299.609 44.9971 300.229 45.7003 301.046C46.4034 301.854 46.9439 302.834 47.3219 303.986C47.7086 305.128 47.9019 306.425 47.9019 307.875ZM44.5928 308.93V307.849C44.5928 306.776 44.4874 305.832 44.2764 305.014C44.0743 304.188 43.7711 303.498 43.3668 302.944C42.9713 302.382 42.4835 301.96 41.9034 301.679C41.3233 301.389 40.6685 301.244 39.939 301.244C39.2095 301.244 38.5592 301.389 37.9879 301.679C37.4166 301.96 36.9288 302.382 36.5245 302.944C36.129 303.498 35.8258 304.188 35.6148 305.014C35.4039 305.832 35.2984 306.776 35.2984 307.849V308.93C35.2984 310.002 35.4039 310.951 35.6148 311.777C35.8258 312.604 36.1334 313.302 36.5377 313.874C36.9508 314.436 37.4429 314.862 38.0142 315.152C38.5855 315.434 39.2359 315.574 39.9654 315.574C40.7037 315.574 41.3585 315.434 41.9298 315.152C42.5011 314.862 42.9845 314.436 43.38 313.874C43.7755 313.302 44.0743 312.604 44.2764 311.777C44.4874 310.951 44.5928 310.002 44.5928 308.93Z" fill="#EFEFED"/>
<path d="M78.9372 307.875V308.93C78.9372 310.38 78.7482 311.681 78.3703 312.832C77.9923 313.983 77.4518 314.963 76.7487 315.772C76.0544 316.581 75.2194 317.2 74.2438 317.631C73.2682 318.053 72.1872 318.264 71.0006 318.264C69.8229 318.264 68.7462 318.053 67.7707 317.631C66.8039 317.2 65.9645 316.581 65.2526 315.772C64.5407 314.963 63.987 313.983 63.5915 312.832C63.2047 311.681 63.0114 310.38 63.0114 308.93V307.875C63.0114 306.425 63.2047 305.128 63.5915 303.986C63.9782 302.834 64.5231 301.854 65.2262 301.046C65.9381 300.229 66.7775 299.609 67.7443 299.187C68.7199 298.756 69.7965 298.541 70.9743 298.541C72.1608 298.541 73.2419 298.756 74.2174 299.187C75.193 299.609 76.0324 300.229 76.7355 301.046C77.4386 301.854 77.9792 302.834 78.3571 303.986C78.7438 305.128 78.9372 306.425 78.9372 307.875ZM75.6281 308.93V307.849C75.6281 306.776 75.5226 305.832 75.3117 305.014C75.1095 304.188 74.8063 303.498 74.402 302.944C74.0065 302.382 73.5187 301.96 72.9386 301.679C72.3586 301.389 71.7038 301.244 70.9743 301.244C70.2448 301.244 69.5944 301.389 69.0231 301.679C68.4518 301.96 67.964 302.382 67.5597 302.944C67.1642 303.498 66.861 304.188 66.6501 305.014C66.4391 305.832 66.3336 306.776 66.3336 307.849V308.93C66.3336 310.002 66.4391 310.951 66.6501 311.777C66.861 312.604 67.1686 313.302 67.5729 313.874C67.986 314.436 68.4782 314.862 69.0495 315.152C69.6208 315.434 70.2711 315.574 71.0006 315.574C71.7389 315.574 72.3937 315.434 72.965 315.152C73.5363 314.862 74.0197 314.436 74.4152 313.874C74.8107 313.302 75.1095 312.604 75.3117 311.777C75.5226 310.951 75.6281 310.002 75.6281 308.93Z" fill="#EFEFED"/>
<path d="M101.957 310.841H96.9602V308.218H101.957C102.827 308.218 103.53 308.077 104.066 307.796C104.602 307.515 104.993 307.128 105.239 306.636C105.494 306.135 105.622 305.563 105.622 304.922C105.622 304.315 105.494 303.749 105.239 303.221C104.993 302.685 104.602 302.254 104.066 301.929C103.53 301.604 102.827 301.441 101.957 301.441H97.9753V318H94.6663V298.805H101.957C103.442 298.805 104.703 299.068 105.74 299.596C106.786 300.114 107.582 300.835 108.127 301.758C108.672 302.672 108.944 303.718 108.944 304.896C108.944 306.135 108.672 307.198 108.127 308.086C107.582 308.974 106.786 309.655 105.74 310.129C104.703 310.604 103.442 310.841 101.957 310.841Z" fill="#EFEFED"/>
<path d="M136.894 315.376V318H126.703V315.376H136.894ZM127.639 298.805V318H124.33V298.805H127.639ZM135.563 306.82V309.404H126.703V306.82H135.563ZM136.828 298.805V301.441H126.703V298.805H136.828Z" fill="#EFEFED"/>
<path d="M152.017 298.805H158.807C160.266 298.805 161.509 299.024 162.538 299.464C163.566 299.903 164.352 300.554 164.897 301.415C165.451 302.268 165.728 303.322 165.728 304.579C165.728 305.537 165.552 306.381 165.201 307.11C164.849 307.84 164.352 308.455 163.711 308.956C163.069 309.448 162.305 309.831 161.417 310.103L160.415 310.591H154.311L154.285 307.967H158.859C159.65 307.967 160.309 307.827 160.837 307.545C161.364 307.264 161.76 306.882 162.023 306.398C162.296 305.906 162.432 305.353 162.432 304.737C162.432 304.069 162.3 303.489 162.037 302.997C161.782 302.496 161.386 302.114 160.85 301.85C160.314 301.578 159.633 301.441 158.807 301.441H155.326V318H152.017V298.805ZM162.973 318L158.464 309.378L161.931 309.365L166.506 317.829V318H162.973Z" fill="#EFEFED"/>
<path d="M188.919 301.362L183.184 318H179.717L186.941 298.805H189.156L188.919 301.362ZM193.718 318L187.97 301.362L187.719 298.805H189.947L197.198 318H193.718ZM193.441 310.881V313.504H182.999V310.881H193.441Z" fill="#EFEFED"/>
<path d="M218.003 298.805V318H214.72V298.805H218.003ZM224.028 298.805V301.441H208.748V298.805H224.028Z" fill="#EFEFED"/>
<path d="M242.512 298.805V318H239.203V298.805H242.512Z" fill="#EFEFED"/>
<path d="M274.352 307.875V308.93C274.352 310.38 274.163 311.681 273.785 312.832C273.407 313.983 272.866 314.963 272.163 315.772C271.469 316.581 270.634 317.2 269.658 317.631C268.683 318.053 267.602 318.264 266.415 318.264C265.238 318.264 264.161 318.053 263.185 317.631C262.218 317.2 261.379 316.581 260.667 315.772C259.955 314.963 259.402 313.983 259.006 312.832C258.619 311.681 258.426 310.38 258.426 308.93V307.875C258.426 306.425 258.619 305.128 259.006 303.986C259.393 302.834 259.938 301.854 260.641 301.046C261.353 300.229 262.192 299.609 263.159 299.187C264.134 298.756 265.211 298.541 266.389 298.541C267.575 298.541 268.656 298.756 269.632 299.187C270.608 299.609 271.447 300.229 272.15 301.046C272.853 301.854 273.394 302.834 273.772 303.986C274.158 305.128 274.352 306.425 274.352 307.875ZM271.043 308.93V307.849C271.043 306.776 270.937 305.832 270.726 305.014C270.524 304.188 270.221 303.498 269.817 302.944C269.421 302.382 268.933 301.96 268.353 301.679C267.773 301.389 267.118 301.244 266.389 301.244C265.659 301.244 265.009 301.389 264.438 301.679C263.866 301.96 263.379 302.382 262.974 302.944C262.579 303.498 262.276 304.188 262.065 305.014C261.854 305.832 261.748 306.776 261.748 307.849V308.93C261.748 310.002 261.854 310.951 262.065 311.777C262.276 312.604 262.583 313.302 262.988 313.874C263.401 314.436 263.893 314.862 264.464 315.152C265.035 315.434 265.686 315.574 266.415 315.574C267.154 315.574 267.808 315.434 268.38 315.152C268.951 314.862 269.434 314.436 269.83 313.874C270.225 313.302 270.524 312.604 270.726 311.777C270.937 310.951 271.043 310.002 271.043 308.93Z" fill="#EFEFED"/>
<path d="M305.308 298.805V318H301.999L293.39 304.25V318H290.081V298.805H293.39L302.025 312.582V298.805H305.308Z" fill="#EFEFED"/>
<path d="M346.39 318H342.29L342.316 315.376H346.39C347.577 315.376 348.57 315.117 349.37 314.599C350.178 314.08 350.785 313.337 351.189 312.371C351.602 311.404 351.809 310.252 351.809 308.917V307.875C351.809 306.838 351.69 305.919 351.453 305.12C351.224 304.32 350.881 303.647 350.424 303.103C349.976 302.558 349.422 302.145 348.763 301.863C348.113 301.582 347.361 301.441 346.509 301.441H342.211V298.805H346.509C347.783 298.805 348.948 299.02 350.002 299.451C351.057 299.873 351.967 300.483 352.731 301.283C353.505 302.083 354.098 303.041 354.511 304.157C354.924 305.273 355.131 306.521 355.131 307.901V308.917C355.131 310.296 354.924 311.544 354.511 312.661C354.098 313.777 353.505 314.735 352.731 315.535C351.958 316.326 351.035 316.937 349.963 317.367C348.899 317.789 347.708 318 346.39 318ZM344.123 298.805V318H340.813V298.805H344.123Z" fill="#EFEFED"/>
<path d="M373.576 297.75V299.609C373.576 300.163 373.475 300.738 373.272 301.336C373.079 301.925 372.807 302.492 372.455 303.037C372.104 303.573 371.699 304.039 371.242 304.434L369.647 303.432C370.007 302.887 370.297 302.312 370.517 301.705C370.746 301.09 370.86 300.4 370.86 299.635V297.75H373.576Z" fill="#EFEFED"/>
<path d="M395.013 301.362L389.278 318H385.811L393.036 298.805H395.251L395.013 301.362ZM399.812 318L394.064 301.362L393.814 298.805H396.042L403.293 318H399.812ZM399.535 310.881V313.504H389.094V310.881H399.535Z" fill="#EFEFED"/>
<path d="M417.862 298.805H424.651C426.11 298.805 427.354 299.024 428.382 299.464C429.41 299.903 430.197 300.554 430.742 301.415C431.296 302.268 431.572 303.322 431.572 304.579C431.572 305.537 431.397 306.381 431.045 307.11C430.694 307.84 430.197 308.455 429.555 308.956C428.914 309.448 428.149 309.831 427.261 310.103L426.259 310.591H420.155L420.129 307.967H424.704C425.495 307.967 426.154 307.827 426.681 307.545C427.209 307.264 427.604 306.882 427.868 306.398C428.14 305.906 428.277 305.353 428.277 304.737C428.277 304.069 428.145 303.489 427.881 302.997C427.626 302.496 427.231 302.114 426.695 301.85C426.158 301.578 425.477 301.441 424.651 301.441H421.171V318H417.862V298.805ZM428.817 318L424.308 309.378L427.776 309.365L432.35 317.829V318H428.817Z" fill="#EFEFED"/>
<path d="M454.289 298.805V318H451.006V298.805H454.289ZM460.314 298.805V301.441H445.034V298.805H460.314Z" fill="#EFEFED"/>
<path d="M478.798 298.805V318H475.489V298.805H478.798Z" fill="#EFEFED"/>
<path d="M505.43 313.056C505.43 312.661 505.369 312.309 505.246 312.001C505.131 311.694 504.925 311.413 504.626 311.158C504.327 310.903 503.905 310.657 503.36 310.419C502.824 310.173 502.139 309.923 501.304 309.668C500.39 309.387 499.546 309.075 498.772 308.732C498.008 308.38 497.34 307.976 496.768 307.519C496.197 307.053 495.753 306.521 495.437 305.924C495.121 305.317 494.962 304.619 494.962 303.828C494.962 303.045 495.125 302.333 495.45 301.692C495.784 301.05 496.254 300.497 496.861 300.031C497.476 299.556 498.201 299.191 499.036 298.937C499.871 298.673 500.794 298.541 501.805 298.541C503.228 298.541 504.455 298.805 505.483 299.332C506.52 299.859 507.315 300.567 507.869 301.455C508.432 302.342 508.713 303.322 508.713 304.395H505.43C505.43 303.762 505.294 303.204 505.021 302.72C504.758 302.228 504.353 301.841 503.809 301.56C503.272 301.279 502.591 301.138 501.765 301.138C500.983 301.138 500.332 301.257 499.814 301.494C499.295 301.731 498.909 302.052 498.654 302.457C498.399 302.861 498.271 303.318 498.271 303.828C498.271 304.188 498.355 304.518 498.522 304.816C498.689 305.106 498.944 305.379 499.287 305.634C499.629 305.88 500.06 306.113 500.579 306.333C501.097 306.552 501.708 306.763 502.411 306.965C503.475 307.282 504.402 307.633 505.193 308.02C505.984 308.398 506.643 308.829 507.17 309.312C507.698 309.795 508.093 310.345 508.357 310.96C508.621 311.566 508.752 312.256 508.752 313.03C508.752 313.838 508.59 314.568 508.265 315.218C507.939 315.86 507.474 316.409 506.867 316.866C506.269 317.314 505.549 317.662 504.705 317.908C503.87 318.145 502.938 318.264 501.91 318.264C500.987 318.264 500.078 318.141 499.181 317.895C498.293 317.648 497.485 317.275 496.755 316.774C496.026 316.264 495.446 315.631 495.015 314.875C494.584 314.111 494.369 313.219 494.369 312.199H497.678C497.678 312.823 497.784 313.355 497.995 313.794C498.214 314.234 498.518 314.594 498.904 314.875C499.291 315.148 499.739 315.35 500.249 315.482C500.768 315.614 501.321 315.68 501.91 315.68C502.684 315.68 503.33 315.57 503.848 315.35C504.375 315.13 504.771 314.823 505.035 314.427C505.298 314.032 505.43 313.575 505.43 313.056Z" fill="#EFEFED"/>
<path d="M531.574 301.362L525.839 318H522.372L529.597 298.805H531.812L531.574 301.362ZM536.373 318L530.625 301.362L530.375 298.805H532.603L539.854 318H536.373ZM536.096 310.881V313.504H525.655V310.881H536.096Z" fill="#EFEFED"/>
<path d="M569.65 298.805V318H566.34L557.732 304.25V318H554.422V298.805H557.732L566.367 312.582V298.805H569.65Z" fill="#EFEFED"/>
<path d="M596.11 313.056C596.11 312.661 596.049 312.309 595.926 312.001C595.811 311.694 595.605 311.413 595.306 311.158C595.007 310.903 594.585 310.657 594.04 310.419C593.504 310.173 592.819 309.923 591.984 309.668C591.07 309.387 590.226 309.075 589.452 308.732C588.688 308.38 588.02 307.976 587.448 307.519C586.877 307.053 586.433 306.521 586.117 305.924C585.801 305.317 585.642 304.619 585.642 303.828C585.642 303.045 585.805 302.333 586.13 301.692C586.464 301.05 586.934 300.497 587.541 300.031C588.156 299.556 588.881 299.191 589.716 298.937C590.551 298.673 591.474 298.541 592.485 298.541C593.908 298.541 595.135 298.805 596.163 299.332C597.2 299.859 597.995 300.567 598.549 301.455C599.112 302.342 599.393 303.322 599.393 304.395H596.11C596.11 303.762 595.974 303.204 595.701 302.72C595.438 302.228 595.033 301.841 594.489 301.56C593.952 301.279 593.271 301.138 592.445 301.138C591.663 301.138 591.012 301.257 590.494 301.494C589.975 301.731 589.589 302.052 589.334 302.457C589.079 302.861 588.951 303.318 588.951 303.828C588.951 304.188 589.035 304.518 589.202 304.816C589.369 305.106 589.624 305.379 589.967 305.634C590.309 305.88 590.74 306.113 591.259 306.333C591.777 306.552 592.388 306.763 593.091 306.965C594.155 307.282 595.082 307.633 595.873 308.02C596.664 308.398 597.323 308.829 597.85 309.312C598.378 309.795 598.773 310.345 599.037 310.96C599.301 311.566 599.432 312.256 599.432 313.03C599.432 313.838 599.27 314.568 598.945 315.218C598.619 315.86 598.154 316.409 597.547 316.866C596.949 317.314 596.229 317.662 595.385 317.908C594.55 318.145 593.618 318.264 592.59 318.264C591.667 318.264 590.758 318.141 589.861 317.895C588.973 317.648 588.165 317.275 587.435 316.774C586.706 316.264 586.126 315.631 585.695 314.875C585.264 314.111 585.049 313.219 585.049 312.199H588.358C588.358 312.823 588.464 313.355 588.675 313.794C588.894 314.234 589.198 314.594 589.584 314.875C589.971 315.148 590.419 315.35 590.929 315.482C591.448 315.614 592.001 315.68 592.59 315.68C593.364 315.68 594.01 315.57 594.528 315.35C595.055 315.13 595.451 314.823 595.715 314.427C595.978 314.032 596.11 313.575 596.11 313.056Z" fill="#EFEFED"/>
<path d="M61.1855 250.303C83.3158 250.303 96.5587 238.46 100.226 223.303L120.611 228.536C113.645 257.458 90.1054 270.87 61.3456 271.382H60.1286C27.3815 271.382 0.367188 251.712 0.367188 209.202C0.367188 166.693 27.3815 147.007 60.1446 147.007H61.3616C90.1214 147.535 113.645 160.947 120.627 189.868L100.242 195.102C96.0623 179.945 82.9795 168.101 61.2015 168.101C35.7564 168.101 21.2965 184.123 21.2965 209.218C21.2965 234.314 36.9895 250.335 61.2015 250.335L61.1855 250.303Z" fill="#EFEFED"/>
<path d="M189.629 271.381C155.473 271.381 127.578 251.343 127.578 209.186C127.578 167.029 155.986 146.99 188.573 146.99H189.613C223.946 147.518 251.841 167.029 251.841 209.186C251.841 251.343 223.946 271.381 189.613 271.381H189.629ZM189.613 153.536H188.525C164.457 153.536 138.659 173.527 138.659 209.202C138.659 244.877 163.816 264.867 189.613 264.867C217.364 264.867 240.776 244.413 240.776 209.202C240.776 173.991 215.843 153.536 189.613 153.536Z" fill="#EFEFED"/>
<path d="M317.379 271.381C283.223 271.381 255.328 251.343 255.328 209.186C255.328 167.029 283.736 146.99 316.323 146.99H317.363C351.696 147.518 379.591 167.029 379.591 209.186C379.591 251.343 351.696 271.381 317.363 271.381H317.379ZM317.379 166.516H316.515C297.171 166.516 276.434 181.849 276.434 209.202C276.434 236.554 296.658 251.887 317.395 251.887C339.702 251.887 358.533 236.218 358.533 209.202C358.533 182.185 338.485 166.516 317.395 166.516H317.379Z" fill="#EFEFED"/>
<path d="M492.355 187.595C492.355 207.281 475.622 227.656 447.743 227.656H410.96V270.165H390.047V148.223H447.743C475.622 148.223 492.355 161.811 492.355 187.595ZM445.116 210.77C458.535 210.77 471.266 200.319 471.266 188.123C471.266 172.79 458.712 166.004 445.116 166.004H410.96V210.77H445.116Z" fill="#EFEFED"/>
<path d="M576.191 270.165L566.087 243.164H511.353L501.073 270.165H478.414L524.42 148.223H553.532L599.538 270.165H576.191ZM538.72 169.125L517.63 225.223H535.229C540.113 225.223 548.12 225.575 555.278 226.087C558.24 226.615 561.026 229.576 563.3 234.794L538.72 169.125Z" fill="#EFEFED"/>
<path d="M91.949 102.512V122.038H1.25V0H22.1793V95.8861C22.1793 99.9034 20.2577 104.257 17.4714 107.042L17.6476 107.218C20.4339 104.433 24.8055 102.512 28.8088 102.512H91.949Z" fill="#EFEFED"/>
<path d="M198.263 122.038L188.143 95.0219H133.378L123.081 122.038H100.406L146.46 0H175.588L221.642 122.038H198.263ZM160.76 20.9186L139.655 77.0642H157.269C162.153 77.0642 170.176 77.4163 177.334 77.9285C180.296 78.4566 183.083 81.4176 185.356 86.6512L160.76 20.9186Z" fill="#EFEFED"/>
<path d="M181.738 168.629C181.562 168.774 181.578 168.709 181.449 168.758C181.145 168.838 180.505 169.03 180.184 169.126C176.806 170.182 173.891 172.247 171.089 174.359L171.185 174.023C171.553 174.887 170.624 175.4 170.144 175.96C169.808 176.312 169.664 176.392 169.76 176.616C170.016 177.176 170.592 177.816 171.105 178.345L172.69 180.041C173.315 180.585 174.067 181.69 173.283 182.538V182.026C178.359 187.563 183.211 193.325 188.095 199.055C189.28 200.447 192.435 204.145 193.587 205.505C194.949 206.881 201.978 214.004 203.484 215.508C210.497 221.974 215.301 230.185 221.787 236.987C223.292 238.651 224.941 239.948 226.527 241.356C226.767 241.644 227.007 242.093 227.023 242.589C226.959 244.253 226.206 244.509 225.662 245.726C224.669 248.094 220.041 248.831 218.984 249.071C217.367 249.727 216.182 248.094 215.718 246.878C214.581 242.733 211.955 240.06 208.928 237.083C203.227 230.841 197.895 224.535 192.579 217.893C185.421 209.378 177.142 199.935 169.76 191.421C168.943 190.476 167.326 188.556 166.541 187.579L169.039 187.467C168.783 187.787 168.703 187.819 168.543 187.932C165.532 189.468 163.883 184.731 162.186 183.578C161.865 183.658 160.872 184.522 160.616 184.827C160.36 185.067 160.392 185.259 160.44 184.827C160.44 184.634 160.344 184.362 160.216 184.25L160.312 184.362C162.041 186.523 159.287 188.332 158.054 189.676L157.301 190.428C156.229 191.853 154.211 191.293 153.33 190.332L152.482 189.5C149.823 186.891 147.87 185.531 151.521 182.49L153.218 180.873L153.122 180.985C154.019 179.977 155.108 179.833 156.213 179.689C156.725 179.497 157.125 178.953 157.446 178.489C157.622 178.152 157.574 178.2 157.622 177.56C157.654 177.112 157.846 176.568 158.118 176.2C161.609 171.91 166.573 169.718 171.681 168.357C174.163 167.653 176.661 166.981 179.224 166.581C180.473 166.453 181.385 167.413 181.722 168.581L181.738 168.629ZM181.449 168.485C181.177 168.341 180.905 167.685 180.569 167.477C180.248 167.173 179.656 167.125 179.336 167.189C174.5 168.469 169.472 170.022 165.18 172.519C163.098 173.783 161.097 175.496 159.752 177.304C159.463 177.816 159.752 178.104 159.511 178.905C159.239 179.705 158.775 180.329 158.182 180.953C157.734 181.401 157.061 181.802 156.389 181.914C155.764 181.962 155.22 182.122 154.916 182.49C154.339 183.162 152.417 184.987 152.017 185.579C152.017 185.611 152.049 185.515 152.017 185.419C152.017 185.323 151.985 185.339 152.049 185.419C152.337 185.851 153.859 187.243 154.291 187.627C154.531 187.803 155.284 188.636 155.508 188.652C155.508 188.652 155.268 188.62 155.14 188.828C156.004 187.836 157.334 186.571 158.07 185.643C158.07 185.611 157.974 185.883 158.038 186.091C158.102 186.283 158.086 186.187 157.99 186.075L158.086 186.187C157.798 185.867 157.59 185.355 157.59 184.907C157.574 184.058 158.054 183.418 158.47 182.922C159.591 181.834 160.088 181.017 161.833 180.633C164.908 180.345 165.837 183.69 167.774 185.131C167.358 184.987 166.813 185.131 166.493 185.595L168.991 185.483C177.766 195.71 186.59 205.489 195.045 216.116C200.041 222.598 205.373 229.176 210.834 235.354C213.748 238.203 216.967 241.868 217.96 245.998C218.12 246.398 218.28 246.734 218.488 246.926C218.312 246.91 218.392 246.846 218.04 246.974C219 246.702 220.009 246.526 220.954 246.238C221.803 245.998 222.732 245.694 223.164 245.374C223.708 244.957 224.093 243.965 224.557 243.373C224.813 243.021 224.925 242.685 224.893 242.749C224.941 242.845 224.861 242.637 224.557 242.429C215.718 235.098 210.61 224.455 202.347 216.677L194.532 208.482C193.459 207.41 191.73 205.441 190.801 204.241C184.844 197.006 178.919 189.564 172.738 182.522C172.402 182.09 173.123 181.85 172.834 181.337C171.842 179.849 170 178.521 169.199 176.824C168.959 176.36 169.44 175.784 169.76 175.544C169.872 175.4 170.721 174.727 170.721 174.519C170.769 174.311 170.576 174.071 170.785 173.927C172.434 172.727 174.115 171.59 175.877 170.582C177.606 169.606 179.48 168.918 181.385 168.453L181.481 168.437C181.497 168.453 181.594 168.357 181.481 168.501L181.449 168.485Z" fill="#EFEFED"/>
<path d="M219.589 172.998L219.638 173.622C219.654 174.438 219.894 175.127 219.638 175.255L217.652 176.151L217.78 175.959L217.94 178.12C217.94 178.216 217.892 178.312 217.812 178.344L215.826 179.24L215.97 179L216.131 181.161C216.131 181.273 216.067 181.385 215.97 181.433L213.985 182.329L214.161 182.041L214.321 184.202C214.321 184.33 214.241 184.458 214.129 184.506L212.143 185.402L212.351 185.066L212.512 187.226C212.512 187.387 212.432 187.515 212.287 187.579L210.302 188.475L210.526 188.107L210.686 190.267C210.686 190.443 210.59 190.604 210.446 190.668L208.46 191.564L208.716 191.148L208.877 193.308C208.877 193.5 208.781 193.676 208.604 193.757L206.619 194.653L206.907 194.189L207.067 196.349C207.067 196.557 206.955 196.749 206.763 196.829L204.777 197.726L205.081 197.214L205.242 199.374C205.258 199.614 205.13 199.822 204.921 199.902L202.936 200.799L203.272 200.255L203.432 202.415C203.448 202.671 203.304 202.895 203.08 202.991L201.094 203.888L201.462 203.296L201.623 205.456C201.639 205.728 201.495 205.968 201.254 206.064C201.254 206.064 199.269 206.961 199.253 206.961L199.637 206.32L199.797 208.481C199.813 208.769 199.653 209.041 199.397 209.137L197.411 210.034L197.827 209.345L197.988 211.506C198.004 211.81 197.827 212.082 197.571 212.21C197.571 212.21 195.586 213.107 195.57 213.107L196.018 212.386L196.178 214.547C196.194 214.883 196.002 215.171 195.714 215.299L193.728 216.196L194.192 215.427L194.353 217.588C194.385 217.94 194.176 218.244 193.872 218.372L191.887 219.253L192.383 218.452L192.527 220.613C192.559 220.981 192.335 221.301 192.031 221.429L190.045 222.309L190.557 221.477L190.702 223.638C190.734 224.006 190.509 224.342 190.189 224.486C190.189 224.486 188.204 225.366 188.187 225.382L188.716 224.502L188.86 226.663C188.892 227.047 188.652 227.399 188.316 227.559L186.33 228.439L186.89 227.527L187.035 229.688C187.067 230.088 186.826 230.456 186.474 230.616L184.488 231.496L185.065 230.552L185.209 232.713C185.241 233.129 185.001 233.513 184.633 233.673L182.647 234.553L183.239 233.577L183.384 235.738C183.416 236.17 183.159 236.554 182.791 236.714C182.791 236.714 180.805 237.594 180.789 237.61L181.398 236.602L181.542 238.763C181.574 239.211 181.318 239.611 180.934 239.771C180.934 239.771 178.948 240.651 178.932 240.667L179.572 239.627L179.717 241.788C179.749 242.252 179.476 242.668 179.076 242.844L177.09 243.724L177.731 242.892L177.363 245.309C177.266 246.077 176.338 246.509 175.681 246.093C175.665 246.093 173.776 244.909 173.76 244.909C173.343 244.669 172.575 244.156 172.158 243.932C172.126 243.9 172.03 243.884 172.238 243.932C172.302 243.964 172.783 243.948 172.991 243.756C173.151 243.628 173.103 243.66 173.071 243.708C170.845 246.157 168.043 249.358 165.865 251.839C164.968 252.895 163.783 254.224 162.198 253.471C161.365 252.975 161.125 252.735 160.773 251.823C160.533 251.135 160.949 250.238 161.189 249.854C161.237 249.758 161.317 249.646 161.285 249.63C161.301 249.518 161.317 249.79 161.269 249.63C160.565 248.798 158.947 247.581 158.211 246.509C156.513 244.412 155.553 241.948 154.656 239.467C154.592 239.387 154.56 239.387 154.544 239.371C154.528 239.371 154.464 239.371 154.352 239.403C154.287 239.435 154.255 239.451 154.127 239.515C151.341 241.195 148.25 237.706 150.668 235.37C152.126 233.769 157.298 227.943 158.851 226.231C159.348 225.719 161.91 222.662 162.39 222.293C162.726 222.005 163.271 221.797 163.735 221.845C164.552 221.941 164.904 222.325 164.488 222.069C164.2 221.893 163.383 221.989 163.175 222.213C163.063 222.309 163.063 222.309 163.143 222.213L163.511 221.797C173.872 210.114 184.536 198.686 195.169 187.226C199.429 182.809 209.405 172.022 213.601 167.78C216.163 164.947 219.589 169.781 221.511 171.333C221.623 171.446 221.607 171.654 221.463 171.734L219.461 172.838L219.589 172.998ZM219.301 172.854L221.319 171.446L221.287 171.862C219.878 170.949 215.954 166.596 214.609 168.725C210.862 173.238 201.142 184.442 197.171 189.067C186.746 200.959 176.37 212.899 165.673 224.55C165.321 225.078 164.152 225.607 163.415 225.222C162.823 224.886 163.031 225.126 163.655 225.222C164.328 225.222 164.44 224.998 164.504 224.982C161.894 227.927 156.545 233.657 153.711 236.682L152.942 237.498C152.67 237.802 152.846 237.658 152.83 237.498C152.83 237.29 152.718 237.178 152.702 237.194C152.894 237.162 153.215 236.906 153.519 236.842C155.488 236.122 157.298 237.514 157.682 239.435C158.307 241.403 159.172 243.372 160.405 245.005C161.573 246.845 165.225 248.51 163.511 251.231L163.319 251.567C163.319 251.599 163.351 251.471 163.319 251.343C163.271 251.215 163.255 251.215 163.319 251.295C163.431 251.423 163.383 251.359 163.319 251.343C163.287 251.327 163.239 251.327 163.191 251.343C165.209 249.118 169.468 244.412 171.454 242.316C172.302 241.323 173.343 242.044 174.112 242.556C174.704 242.956 176.306 243.948 176.93 244.364L175.249 245.133L175.649 242.732C175.713 242.348 175.969 242.044 176.29 241.9L178.291 241.051L177.651 242.108L177.539 239.947C177.507 239.483 177.779 239.083 178.179 238.907L180.181 238.058L179.556 239.083L179.444 236.906C179.428 236.474 179.684 236.074 180.053 235.914L182.054 235.065L181.446 236.058L181.334 233.897C181.302 233.465 181.558 233.081 181.926 232.921L183.928 232.057L183.352 233.017L183.239 230.856C183.207 230.44 183.448 230.072 183.816 229.912L185.818 229.064L185.257 229.992L185.145 227.831C185.113 227.431 185.353 227.079 185.705 226.919L187.707 226.055L187.163 226.951L187.051 224.774C187.035 224.39 187.259 224.054 187.579 223.91L189.581 223.046L189.052 223.894L188.94 221.717C188.924 221.349 189.132 221.029 189.453 220.885L191.454 220.021L190.958 220.837L190.846 218.676C190.814 218.324 191.022 218.004 191.342 217.876L193.344 217.012L192.863 217.796L192.751 215.619C192.735 215.283 192.927 214.995 193.216 214.867L195.217 214.019L194.753 214.771L194.641 212.61C194.625 212.29 194.801 212.002 195.089 211.89L197.091 211.042L196.659 211.746L196.546 209.569C196.546 209.265 196.707 209.009 196.963 208.897L198.964 208.049L198.564 208.705L198.452 206.545C198.436 206.256 198.596 206.016 198.836 205.904L200.838 205.056L200.454 205.68L200.342 203.52C200.326 203.264 200.47 203.023 200.71 202.927L202.712 202.079L202.359 202.655L202.247 200.479C202.247 200.239 202.375 200.03 202.583 199.934L204.585 199.086L204.265 199.614L204.153 197.438C204.153 197.214 204.265 197.022 204.457 196.942L206.459 196.093L206.154 196.573L206.042 194.413C206.042 194.205 206.154 194.029 206.331 193.949L208.332 193.1L208.06 193.548L207.948 191.372C207.948 191.196 208.044 191.02 208.204 190.956L210.206 190.107L209.966 190.507L209.853 188.331C209.853 188.171 209.95 188.011 210.078 187.963L212.079 187.114L211.871 187.467L211.759 185.29C211.759 185.146 211.839 185.018 211.967 184.954L213.969 184.105L213.777 184.41L213.665 182.233C213.665 182.105 213.729 181.993 213.841 181.945L215.842 181.097L215.682 181.369L215.57 179.192C215.57 179.08 215.634 178.984 215.714 178.952L217.716 178.104L217.588 178.328L217.476 176.151C217.476 176.071 217.524 175.991 217.604 175.943L219.605 175.095L219.493 175.271L219.397 173.014L219.301 172.854Z" fill="#EFEFED"/>
<path d="M164.839 240.795C165.447 241.755 166.152 244.252 167.529 242.843C168.17 242.075 169.691 240.699 169.323 239.69C168.97 238.65 167.833 237.354 167.065 236.041C165.928 234.361 164.983 232.184 163.446 231.08C163.157 230.984 163.286 231.08 162.997 231.288C162.565 231.656 162.277 232.104 161.924 232.584C161.556 233.064 161.06 233.897 161.06 233.833C161.06 233.769 161.028 233.641 160.996 233.577C162.581 236.073 163.478 238.154 164.839 240.779V240.795ZM164.567 240.971C163.109 238.586 160.707 237.354 158.658 235.545C158.113 235.017 157.793 234.105 157.905 233.336C158.738 230.344 161.892 226.598 165.031 228.743C167.097 230.504 167.737 232.888 168.89 235.049C169.611 236.906 171.58 238.746 170.684 240.939C169.931 242.091 169.018 242.667 167.913 243.42C167.561 243.612 167.161 243.836 166.664 243.772C165.415 243.356 165.287 241.883 164.567 240.987V240.971Z" fill="#EFEFED"/>
<path d="M213.263 174.342C212.975 174.534 213.087 174.982 213.391 175.03C213.696 175.11 213.904 174.87 213.808 174.79C213.904 174.582 214.432 173.718 214.64 173.254C214.48 173.27 214.32 173.814 214.416 174.006C214.448 174.214 214.769 174.422 215.201 174.198C215.393 174.102 215.457 173.83 215.185 173.958C214.592 174.038 213.696 173.958 213.263 174.342ZM213.007 174.15C213.616 173.19 212.639 171.829 214.128 171.189C216.45 170.213 218.195 173.174 216.706 174.79C215.97 175.399 215.617 175.815 214.416 176.279C213.023 176.599 212.415 175.03 213.007 174.15Z" fill="#EFEFED"/>
</g>
<defs>
<clipPath id="clip0_361_1755">
<rect width="600" height="366" fill="white"/>
</clipPath>
</defs>
</svg>
