<svg width="302" height="167" viewBox="0 0 302 167" fill="none" xmlns="http://www.w3.org/2000/svg">
<g clip-path="url(#clip0_190_1553)">
<path d="M30.7955 126.286C41.9344 126.286 48.6 120.311 50.4457 112.664L60.7061 115.304C57.2 129.896 45.3518 136.663 30.8761 136.921H30.2635C13.7808 136.921 0.183594 126.997 0.183594 105.55C0.183594 84.1022 13.7808 74.1699 30.2716 74.1699H30.8841C45.3599 74.4364 57.2 81.2033 60.7142 95.7949L50.4538 98.4354C48.3501 90.7884 41.7651 84.8128 30.8035 84.8128C17.9962 84.8128 10.718 92.896 10.718 105.558C10.718 118.219 18.6168 126.302 30.8035 126.302L30.7955 126.286Z" fill="#EFEFED"/>
<path d="M95.4434 136.921C78.2515 136.921 64.2109 126.811 64.2109 105.542C64.2109 84.2721 78.5094 74.1621 94.9115 74.1621H95.4354C112.716 74.4286 126.757 84.2721 126.757 105.542C126.757 126.811 112.716 136.921 95.4354 136.921H95.4434ZM95.4354 77.4648H94.8873C82.7731 77.4648 69.7885 87.5505 69.7885 105.55C69.7885 123.549 82.4507 133.635 95.4354 133.635C109.403 133.635 121.187 123.315 121.187 105.55C121.187 87.7847 108.638 77.4648 95.4354 77.4648Z" fill="#EFEFED"/>
<path d="M159.748 136.921C142.556 136.921 128.516 126.811 128.516 105.542C128.516 84.2721 142.814 74.1621 159.216 74.1621H159.74C177.021 74.4286 191.061 84.2721 191.061 105.542C191.061 126.811 177.021 136.921 159.74 136.921H159.748ZM159.748 84.0137H159.313C149.576 84.0137 139.139 91.7496 139.139 105.55C139.139 119.35 149.318 127.086 159.756 127.086C170.984 127.086 180.462 119.18 180.462 105.55C180.462 91.9191 170.371 84.0137 159.756 84.0137H159.748Z" fill="#EFEFED"/>
<path d="M247.82 94.6478C247.82 104.58 239.397 114.86 225.364 114.86H206.851V136.307H196.324V74.7832H225.364C239.397 74.7832 247.82 81.6389 247.82 94.6478ZM224.043 106.34C230.797 106.34 237.205 101.067 237.205 94.9143C237.205 87.1784 230.885 83.7546 224.043 83.7546H206.851V106.34H224.043Z" fill="#EFEFED"/>
<path d="M290.011 136.307L284.925 122.684H257.376L252.202 136.307H240.797L263.953 74.7832H278.606L301.763 136.307H290.011ZM271.151 85.3292L260.536 113.632H269.394C271.852 113.632 275.882 113.81 279.485 114.068C280.976 114.335 282.378 115.829 283.523 118.461L271.151 85.3292Z" fill="#EFEFED"/>
<path d="M5.34403 165.143C7.28648 165.143 8.45518 164.102 8.76952 162.769L10.5588 163.229C9.94628 165.773 7.88292 166.96 5.35209 167.001H5.24731C2.36989 167.001 -0.0078125 165.264 -0.0078125 161.526C-0.0078125 157.787 2.36183 156.051 5.24731 156.051H5.35209C7.87486 156.099 9.94628 157.278 10.5588 159.822L8.76952 160.282C8.39876 158.95 7.25424 157.9 5.34403 157.9C3.11141 157.9 1.83793 159.313 1.83793 161.518C1.83793 163.722 3.21619 165.135 5.34403 165.135V165.143Z" fill="#EFEFED"/>
<path d="M21.5267 167.001C18.5284 167.001 16.0781 165.24 16.0781 161.526C16.0781 157.811 18.5767 156.051 21.438 156.051H21.5267C24.5411 156.099 26.9914 157.811 26.9914 161.526C26.9914 165.24 24.5411 167.001 21.5267 167.001ZM21.5267 157.763H21.4541C19.7535 157.763 17.9319 159.111 17.9319 161.518C17.9319 163.924 19.7051 165.272 21.5267 165.272C23.4853 165.272 25.1376 163.892 25.1376 161.518C25.1376 159.144 23.3805 157.763 21.5267 157.763Z" fill="#EFEFED"/>
<path d="M38.5736 167.001C35.5752 167.001 33.125 165.24 33.125 161.526C33.125 157.811 35.6236 156.051 38.4849 156.051H38.5736C41.588 156.099 44.0382 157.811 44.0382 161.526C44.0382 165.24 41.588 167.001 38.5736 167.001ZM38.5736 157.763H38.501C36.8004 157.763 34.9788 159.111 34.9788 161.518C34.9788 163.924 36.752 165.272 38.5736 165.272C40.5321 165.272 42.1844 163.892 42.1844 161.518C42.1844 159.144 40.4274 157.763 38.5736 157.763Z" fill="#EFEFED"/>
<path d="M58.5416 159.62C58.5416 161.357 57.0747 163.149 54.6244 163.149H51.3924V166.896H49.5547V156.156H54.6244C57.0747 156.156 58.5416 157.351 58.5416 159.62ZM54.3987 161.663C55.5755 161.663 56.6958 160.743 56.6958 159.669C56.6958 158.32 55.5916 157.723 54.3987 157.723H51.4004V161.663H54.3987Z" fill="#EFEFED"/>
<path d="M72.6466 157.876H65.8924V160.929H72.3081V162.398H65.8924V165.176H72.6466V166.896H64.0547V156.156H72.6466V157.876Z" fill="#EFEFED"/>
<path d="M87.5982 163.997L87.6143 166.896H85.7605V164.07C85.7605 163.44 85.3897 163.133 84.5837 163.133L80.0218 163.149V166.896H78.168V156.156H83.5762C86.0265 156.156 87.4934 157.109 87.4934 159.176C87.4934 160.283 87.0501 160.678 86.5423 161.066C86.1877 161.421 85.3655 161.647 84.8416 161.728V161.76C85.2849 161.696 85.8411 161.655 85.8653 161.655C86.1554 161.655 86.4456 161.728 86.6793 161.873C87.171 162.164 87.5982 162.576 87.5982 164.005V163.997ZM80.0137 157.723V161.558H83.1249C84.6079 161.558 85.833 160.791 85.833 159.645C85.833 158.175 84.8819 157.723 83.3828 157.723H80.0137Z" fill="#EFEFED"/>
<path d="M101.717 166.896L100.83 164.522H96.0185L95.1158 166.896H93.125L97.1631 156.156H99.7181L103.764 166.896H101.709H101.717ZM98.4204 157.997L96.5666 162.939H98.1141C98.5413 162.939 99.2506 162.972 99.8712 163.012C100.129 163.06 100.379 163.319 100.572 163.779L98.4124 157.997H98.4204Z" fill="#EFEFED"/>
<path d="M112.559 166.896H110.721V157.876H106.828V156.156H116.444V157.876H113.075C112.768 157.876 112.43 157.723 112.204 157.489L112.172 157.521C112.406 157.755 112.551 158.086 112.551 158.393V166.888L112.559 166.896Z" fill="#EFEFED"/>
<path d="M121.957 156.156H123.795V166.896H121.957V156.156Z" fill="#EFEFED"/>
<path d="M134.765 167.001C131.767 167.001 129.316 165.24 129.316 161.526C129.316 157.811 131.815 156.051 134.676 156.051H134.765C137.779 156.099 140.23 157.811 140.23 161.526C140.23 165.24 137.779 167.001 134.765 167.001ZM134.765 157.763H134.692C132.992 157.763 131.17 159.111 131.17 161.518C131.17 163.924 132.943 165.272 134.765 165.272C136.724 165.272 138.376 163.892 138.376 161.518C138.376 159.144 136.619 157.763 134.765 157.763Z" fill="#EFEFED"/>
<path d="M153.722 156.156H155.559V166.896H153.641L148.007 159.564C147.765 159.241 147.499 158.764 147.378 158.353L147.346 158.369C147.467 158.748 147.58 159.289 147.58 159.701V166.896H145.742V156.156H147.652L153.286 163.569C153.544 163.892 153.794 164.401 153.915 164.78H153.947C153.826 164.369 153.722 163.844 153.722 163.432V156.164V156.156Z" fill="#EFEFED"/>
<path d="M180.658 161.526C180.658 165.176 178.175 166.896 175.209 166.896H170.566V156.156H175.209C178.183 156.156 180.658 157.876 180.658 161.526ZM175.33 165.176C176.91 165.176 178.804 164.183 178.804 161.526C178.804 158.869 176.934 157.876 175.33 157.876H171.606C172.066 157.876 172.42 157.949 172.42 158.353V165.176H175.33Z" fill="#EFEFED"/>
<path d="M187.822 156.381L187.564 160.063H186.734L186.492 156.381H187.822Z" fill="#EFEFED"/>
<path d="M202.233 166.896L201.346 164.522H196.534L195.631 166.896H193.641L197.679 156.156H200.234L204.28 166.896H202.225H202.233ZM198.944 157.997L197.09 162.939H198.638C199.065 162.939 199.774 162.972 200.395 163.012C200.653 163.06 200.903 163.319 201.096 163.779L198.936 157.997H198.944Z" fill="#EFEFED"/>
<path d="M219.231 163.997L219.247 166.896H217.393V164.07C217.393 163.44 217.023 163.133 216.217 163.133L211.655 163.149V166.896H209.801V156.156H215.209C217.659 156.156 219.126 157.109 219.126 159.176C219.126 160.283 218.683 160.678 218.175 161.066C217.82 161.421 216.998 161.647 216.474 161.728V161.76C216.918 161.696 217.474 161.655 217.498 161.655C217.788 161.655 218.078 161.728 218.312 161.873C218.804 162.164 219.231 162.576 219.231 164.005V163.997ZM211.655 157.723V161.558H214.766C216.249 161.558 217.474 160.791 217.474 159.645C217.474 158.175 216.523 157.723 215.024 157.723H211.655Z" fill="#EFEFED"/>
<path d="M230.024 166.896H228.186V157.876H224.293V156.156H233.909V157.876H230.539C230.233 157.876 229.895 157.723 229.669 157.489L229.637 157.521C229.87 157.755 230.016 158.086 230.016 158.393V166.888L230.024 166.896Z" fill="#EFEFED"/>
<path d="M239.43 156.156H241.267V166.896H239.43V156.156Z" fill="#EFEFED"/>
<path d="M248.578 163.52C248.643 164.642 249.699 165.24 251.335 165.256H251.424C253.245 165.256 254.365 164.707 254.365 163.52C254.365 161.299 246.926 163.197 246.926 159.288C246.926 156.971 249.006 156.002 251.335 156.002H251.472C253.833 156.05 255.655 156.971 255.776 159.07L254.027 159.224C253.954 158.231 253.173 157.722 251.472 157.722C249.771 157.722 248.764 158.271 248.764 159.272C248.764 161.299 256.203 159.393 256.203 163.463C256.203 164.949 255.252 166.976 251.367 166.976C247.813 166.976 246.87 165.304 246.789 163.665L248.578 163.528V163.52Z" fill="#EFEFED"/>
<path d="M269.69 166.896L268.803 164.522H263.991L263.088 166.896H261.098L265.136 156.156H267.691L271.737 166.896H269.682H269.69ZM266.401 157.997L264.547 162.939H266.095C266.522 162.939 267.231 162.972 267.852 163.012C268.11 163.06 268.36 163.319 268.553 163.779L266.393 157.997H266.401Z" fill="#EFEFED"/>
<path d="M285.237 156.156H287.075V166.896H285.157L279.523 159.564C279.281 159.241 279.015 158.764 278.894 158.353L278.862 158.369C278.983 158.748 279.095 159.289 279.095 159.701V166.896H277.258V156.156H279.168L284.802 163.569C285.06 163.892 285.31 164.401 285.431 164.78H285.463C285.342 164.369 285.237 163.844 285.237 163.432V156.164V156.156Z" fill="#EFEFED"/>
<path d="M294.375 163.52C294.44 164.642 295.496 165.24 297.132 165.256H297.22C299.042 165.256 300.162 164.707 300.162 163.52C300.162 161.299 292.723 163.197 292.723 159.288C292.723 156.971 294.802 156.002 297.132 156.002H297.269C299.63 156.05 301.452 156.971 301.573 159.07L299.824 159.224C299.751 158.231 298.969 157.722 297.269 157.722C295.568 157.722 294.561 158.271 294.561 159.272C294.561 161.299 302 159.393 302 163.463C302 164.949 301.049 166.976 297.164 166.976C293.61 166.976 292.667 165.304 292.586 163.665L294.375 163.528V163.52Z" fill="#EFEFED"/>
<path d="M46.2807 51.7207V61.5722H0.628906V0H11.1633V48.3776C11.1633 50.4044 10.1961 52.6008 8.79368 54.0059L8.88234 54.0947C10.2848 52.6897 12.4852 51.7207 14.5002 51.7207H46.2807Z" fill="#EFEFED"/>
<path d="M99.7898 61.5722L94.6959 47.9415H67.1307L61.9481 61.5722H50.5352L73.7157 0H88.3768L111.557 61.5722H99.7898ZM80.9133 10.5541L70.2902 38.8813H79.1562C81.6145 38.8813 85.6526 39.059 89.2554 39.3174C90.7465 39.5839 92.1489 41.0778 93.2934 43.7183L80.9133 10.5541Z" fill="#EFEFED"/>
<path d="M91.4723 85.0785C91.3837 85.1511 91.3917 85.1188 91.3273 85.1431C91.1741 85.1834 90.8517 85.2803 90.6905 85.3288C88.9899 85.8617 87.5229 86.9034 86.1124 87.9693L86.1608 87.7998C86.3462 88.2358 85.8787 88.4942 85.6369 88.7768C85.4676 88.9545 85.3951 88.9949 85.4435 89.1079C85.5724 89.3905 85.8626 89.7135 86.1205 89.98L86.9184 90.836C87.2328 91.1105 87.6116 91.6677 87.2167 92.0957V91.8373C89.7717 94.6312 92.2139 97.5383 94.6722 100.429C95.2686 101.132 96.8564 102.997 97.4367 103.683C98.1218 104.378 101.66 107.971 102.418 108.73C105.948 111.993 108.366 116.135 111.63 119.567C112.388 120.407 113.218 121.061 114.016 121.771C114.137 121.917 114.258 122.143 114.266 122.393C114.234 123.233 113.855 123.362 113.581 123.976C113.081 125.171 110.752 125.543 110.22 125.664C109.406 125.995 108.809 125.171 108.576 124.557C108.003 122.466 106.682 121.117 105.158 119.615C102.289 116.466 99.6049 113.285 96.929 109.933C93.3261 105.638 89.1591 100.873 85.4435 96.5773C85.0324 96.1009 84.2183 95.1319 83.8234 94.6393L85.0808 94.5828C84.9518 94.7443 84.9115 94.7604 84.8309 94.817C83.3156 95.5922 82.4854 93.202 81.6311 92.6206C81.4699 92.6609 80.9702 93.097 80.8412 93.2504C80.7123 93.3715 80.7284 93.4684 80.7526 93.2504C80.7526 93.1535 80.7042 93.0162 80.6397 92.9597L80.6881 93.0162C81.5585 94.1064 80.1722 95.0188 79.5516 95.6971L79.1728 96.0767C78.6328 96.7954 77.6172 96.5127 77.1739 96.0282L76.7467 95.6083C75.4088 94.2921 74.4255 93.6057 76.2631 92.0714L77.1175 91.2559L77.0691 91.3124C77.5205 90.8037 78.0686 90.731 78.6247 90.6583C78.8826 90.5614 79.0841 90.2869 79.2453 90.0527C79.334 89.8831 79.3098 89.9073 79.334 89.5843C79.3501 89.3582 79.4468 89.0837 79.5838 88.898C81.3409 86.7338 83.8395 85.6276 86.4107 84.9412C87.66 84.5859 88.9173 84.2467 90.2069 84.0449C90.8356 83.9803 91.295 84.4648 91.4643 85.0542L91.4723 85.0785ZM91.3273 85.0058C91.1902 84.9331 91.0532 84.602 90.884 84.4971C90.7228 84.3436 90.4245 84.3194 90.2633 84.3517C87.8292 84.9977 85.2984 85.781 83.1383 87.0407C82.0905 87.6786 81.083 88.5427 80.406 89.4551C80.2609 89.7135 80.406 89.8589 80.2851 90.2626C80.1481 90.6664 79.9143 90.9813 79.6161 91.2962C79.3904 91.5223 79.0519 91.7242 78.7134 91.7808C78.399 91.805 78.125 91.8857 77.9718 92.0714C77.6817 92.4106 76.7145 93.3312 76.513 93.6299C76.513 93.6461 76.5291 93.5976 76.513 93.5492C76.513 93.5007 76.4969 93.5088 76.5291 93.5492C76.6742 93.7672 77.4399 94.4697 77.6575 94.6635C77.7784 94.7524 78.1572 95.1723 78.2701 95.1803C78.2701 95.1803 78.1492 95.1642 78.0847 95.2692C78.5199 94.7685 79.1889 94.1306 79.5597 93.6622C79.5597 93.6461 79.5113 93.7834 79.5436 93.8883C79.5758 93.9852 79.5677 93.9368 79.5194 93.8803L79.5677 93.9368C79.4227 93.7753 79.3179 93.5169 79.3179 93.2908C79.3098 92.8628 79.5516 92.5398 79.7612 92.2895C80.3254 91.7404 80.5752 91.3285 81.4538 91.1347C83.0013 90.9894 83.4688 92.6771 84.444 93.4038C84.2345 93.3312 83.9604 93.4038 83.7992 93.638L85.0566 93.5815C89.4735 98.7414 93.9145 103.675 98.1702 109.037C100.685 112.308 103.369 115.626 106.117 118.743C107.584 120.181 109.204 122.03 109.704 124.113C109.785 124.315 109.865 124.485 109.97 124.582C109.881 124.574 109.922 124.541 109.744 124.606C110.228 124.469 110.736 124.38 111.211 124.234C111.638 124.113 112.106 123.96 112.324 123.798C112.598 123.588 112.791 123.088 113.025 122.789C113.154 122.611 113.21 122.442 113.194 122.474C113.218 122.522 113.178 122.417 113.025 122.312C108.576 118.614 106.005 113.244 101.846 109.32L97.9123 105.185C97.3723 104.644 96.5018 103.651 96.0343 103.045C93.036 99.3955 90.0538 95.6406 86.9426 92.0876C86.7734 91.8696 87.1361 91.7485 86.991 91.49C86.4913 90.7391 85.5644 90.0688 85.1614 89.2129C85.0405 88.9787 85.2823 88.688 85.4435 88.5669C85.4999 88.4942 85.9271 88.1551 85.9271 88.0501C85.9512 87.9451 85.8545 87.824 85.9593 87.7513C86.7895 87.1457 87.6358 86.5723 88.5224 86.0636C89.3929 85.571 90.3359 85.2238 91.295 84.9896L91.3434 84.9816C91.3514 84.9896 91.3998 84.9412 91.3434 85.0139L91.3273 85.0058Z" fill="#EFEFED"/>
<path d="M110.527 87.2839L110.552 87.5989C110.56 88.0107 110.681 88.3579 110.552 88.4225L109.552 88.8747L109.617 88.7778L109.697 89.8679C109.697 89.9164 109.673 89.9648 109.633 89.981L108.633 90.4332L108.706 90.3121L108.786 91.4022C108.786 91.4587 108.754 91.5152 108.706 91.5395L107.706 91.9917L107.795 91.8463L107.876 92.9365C107.876 93.0011 107.835 93.0657 107.779 93.0899L106.779 93.5421L106.884 93.3725L106.965 94.4626C106.965 94.5434 106.925 94.608 106.852 94.6403L105.853 95.0925L105.965 94.9068L106.046 95.9969C106.046 96.0857 105.998 96.1665 105.925 96.1988L104.926 96.651L105.055 96.441L105.135 97.5312C105.135 97.6281 105.087 97.7169 104.998 97.7573L103.999 98.2095L104.144 97.9753L104.224 99.0654C104.224 99.1704 104.168 99.2673 104.071 99.3077L103.072 99.7599L103.225 99.5015L103.306 100.592C103.314 100.713 103.249 100.818 103.144 100.858L102.145 101.31L102.314 101.036L102.395 102.126C102.403 102.255 102.33 102.368 102.218 102.417L101.218 102.869L101.403 102.57L101.484 103.66C101.492 103.797 101.42 103.919 101.299 103.967C101.299 103.967 100.299 104.419 100.291 104.419L100.485 104.096L100.565 105.186C100.573 105.332 100.493 105.469 100.364 105.517L99.3643 105.97L99.5738 105.622L99.6544 106.712C99.6625 106.866 99.5738 107.003 99.4449 107.068C99.4449 107.068 98.4454 107.52 98.4374 107.52L98.6631 107.157L98.7437 108.247C98.7517 108.416 98.655 108.562 98.5099 108.626L97.5105 109.078L97.7442 108.691L97.8248 109.781C97.8409 109.959 97.7362 110.112 97.583 110.177L96.5836 110.621L96.8334 110.217L96.906 111.307C96.9221 111.493 96.8093 111.654 96.6561 111.719L95.6567 112.163L95.9146 111.743L95.9871 112.833C96.0033 113.019 95.8904 113.189 95.7292 113.261C95.7292 113.261 94.7298 113.705 94.7217 113.714L94.9877 113.269L95.0602 114.36C95.0764 114.553 94.9555 114.731 94.7862 114.812L93.7868 115.256L94.0689 114.796L94.1414 115.886C94.1575 116.088 94.0366 116.273 93.8593 116.354L92.8599 116.798L93.15 116.322L93.2226 117.412C93.2387 117.622 93.1178 117.816 92.9324 117.896L91.933 118.341L92.2312 117.848L92.3037 118.938C92.3198 119.156 92.1909 119.35 92.0055 119.431C92.0055 119.431 91.0061 119.875 90.998 119.883L91.3043 119.374L91.3768 120.464C91.3929 120.69 91.264 120.892 91.0705 120.973C91.0705 120.973 90.0711 121.417 90.063 121.425L90.3854 120.9L90.458 121.99C90.4741 122.225 90.3371 122.435 90.1356 122.523L89.1361 122.968L89.4585 122.548L89.2732 123.767C89.2248 124.155 88.7573 124.373 88.4269 124.163C88.4188 124.163 87.4677 123.565 87.4597 123.565C87.2501 123.444 86.8632 123.186 86.6537 123.073C86.6375 123.056 86.5892 123.048 86.694 123.073C86.7262 123.089 86.968 123.081 87.0728 122.984C87.1534 122.919 87.1292 122.935 87.1131 122.959C85.9927 124.195 84.5822 125.81 83.4861 127.062C83.0347 127.595 82.4383 128.265 81.6403 127.885C81.2212 127.635 81.1003 127.514 80.923 127.054C80.8021 126.706 81.0117 126.254 81.1326 126.06C81.1567 126.012 81.197 125.955 81.1809 125.947C81.189 125.891 81.197 126.028 81.1729 125.947C80.8182 125.527 80.0042 124.914 79.6334 124.373C78.779 123.315 78.2954 122.071 77.8441 120.82C77.8118 120.779 77.7957 120.779 77.7877 120.771C77.7796 120.771 77.7474 120.771 77.6909 120.787C77.6587 120.803 77.6426 120.812 77.5781 120.844C76.1757 121.692 74.6201 119.931 75.8371 118.752C76.5706 117.945 79.174 115.006 79.9558 114.142C80.2057 113.883 81.4953 112.341 81.7371 112.155C81.9063 112.01 82.1804 111.905 82.4141 111.929C82.8252 111.977 83.0025 112.171 82.7929 112.042C82.6478 111.953 82.2368 112.002 82.132 112.115C82.0756 112.163 82.0756 112.163 82.1159 112.115L82.3013 111.905C87.5161 106.01 92.884 100.244 98.2359 94.4626C100.38 92.2339 105.401 86.7913 107.513 84.6515C108.803 83.2222 110.527 85.6608 111.495 86.4441C111.551 86.5006 111.543 86.6056 111.47 86.646L110.463 87.2032L110.527 87.2839ZM110.382 87.2112L111.398 86.5006L111.382 86.7106C110.672 86.2503 108.698 84.0539 108.021 85.1279C106.135 87.405 101.242 93.0576 99.2434 95.3913C93.9963 101.391 88.7734 107.415 83.3894 113.294C83.212 113.56 82.6237 113.827 82.2529 113.633C81.9547 113.463 82.0595 113.584 82.3738 113.633C82.7123 113.633 82.7687 113.52 82.801 113.512C81.4872 114.997 78.7952 117.888 77.3685 119.415L76.9817 119.826C76.8446 119.98 76.9333 119.907 76.9252 119.826C76.9252 119.721 76.8688 119.665 76.8608 119.673C76.9575 119.657 77.1187 119.528 77.2718 119.495C78.2632 119.132 79.174 119.834 79.3674 120.803C79.6818 121.797 80.117 122.79 80.7376 123.614C81.326 124.542 83.1637 125.382 82.3013 126.755L82.2045 126.924C82.2045 126.94 82.2207 126.876 82.2045 126.811C82.1804 126.747 82.1723 126.747 82.2045 126.787C82.261 126.852 82.2368 126.819 82.2045 126.811C82.1884 126.803 82.1642 126.803 82.1401 126.811C83.1556 125.689 85.2996 123.315 86.299 122.257C86.7262 121.756 87.2501 122.12 87.637 122.378C87.9352 122.58 88.7412 123.081 89.0555 123.291L88.2092 123.678L88.4107 122.467C88.443 122.273 88.5719 122.12 88.7331 122.047L89.7406 121.619L89.4182 122.152L89.3618 121.062C89.3457 120.828 89.4827 120.626 89.6842 120.537L90.6917 120.109L90.3774 120.626L90.321 119.528C90.3129 119.31 90.4419 119.108 90.6272 119.027L91.6347 118.599L91.3285 119.1L91.272 118.009C91.2559 117.791 91.3849 117.598 91.5703 117.517L92.5778 117.081L92.2876 117.565L92.2312 116.475C92.2151 116.265 92.336 116.08 92.5213 115.999L93.5288 115.571L93.2467 116.039L93.1903 114.949C93.1742 114.747 93.2951 114.569 93.4724 114.489L94.4799 114.053L94.2059 114.505L94.1495 113.407C94.1414 113.213 94.2542 113.043 94.4154 112.971L95.4229 112.535L95.157 112.963L95.1005 111.864C95.0925 111.679 95.1973 111.517 95.3585 111.444L96.366 111.008L96.1161 111.42L96.0597 110.33C96.0436 110.152 96.1483 109.991 96.3095 109.926L97.317 109.49L97.0752 109.886L97.0188 108.788C97.0108 108.618 97.1075 108.473 97.2526 108.408L98.2601 107.98L98.0263 108.36L97.9699 107.27C97.9618 107.108 98.0505 106.963 98.1956 106.906L99.2031 106.478L98.9855 106.834L98.929 105.735C98.929 105.582 99.0096 105.453 99.1386 105.396L100.146 104.968L99.9446 105.299L99.8882 104.209C99.8801 104.064 99.9607 103.943 100.082 103.886L101.089 103.458L100.896 103.773L100.839 102.683C100.831 102.554 100.904 102.433 101.025 102.384L102.032 101.956L101.855 102.247L101.798 101.149C101.798 101.028 101.863 100.923 101.968 100.874L102.975 100.446L102.814 100.713L102.758 99.6145C102.758 99.5015 102.814 99.4046 102.911 99.3642L103.918 98.9362L103.765 99.1785L103.709 98.0883C103.709 97.9834 103.765 97.8945 103.854 97.8542L104.861 97.4262L104.724 97.6523L104.668 96.5541C104.668 96.4652 104.716 96.3764 104.797 96.3441L105.804 95.9161L105.683 96.118L105.627 95.0198C105.627 94.9391 105.675 94.8583 105.74 94.8341L106.747 94.4061L106.642 94.5838L106.586 93.4856C106.586 93.4129 106.626 93.3483 106.691 93.316L107.698 92.888L107.602 93.0414L107.545 91.9432C107.545 91.8786 107.577 91.8221 107.634 91.7979L108.641 91.3699L108.561 91.5072L108.504 90.409C108.504 90.3524 108.537 90.304 108.577 90.2878L109.584 89.8599L109.52 89.9729L109.463 88.8747C109.463 88.8343 109.488 88.794 109.528 88.7697L110.535 88.3418L110.479 88.4306L110.431 87.292L110.382 87.2112Z" fill="#EFEFED"/>
<path d="M82.9699 121.49C83.2762 121.975 83.6309 123.234 84.324 122.524C84.6464 122.136 85.4121 121.442 85.2267 120.933C85.0494 120.408 84.4772 119.754 84.0903 119.092C83.518 118.244 83.0425 117.146 82.2687 116.589C82.1236 116.54 82.1881 116.588 82.043 116.693C81.8254 116.879 81.6803 117.105 81.503 117.348C81.3176 117.59 81.0678 118.01 81.0678 117.977C81.0678 117.945 81.0517 117.881 81.0355 117.848C81.8335 119.108 82.2848 120.158 82.9699 121.482V121.49ZM82.8329 121.579C82.0995 120.376 80.8905 119.754 79.8588 118.841C79.5847 118.575 79.4235 118.115 79.48 117.727C79.8991 116.217 81.4869 114.327 83.0667 115.41C84.1064 116.298 84.4288 117.501 85.0091 118.591C85.3718 119.528 86.3632 120.456 85.9118 121.563C85.533 122.144 85.0736 122.435 84.5175 122.814C84.3401 122.911 84.1386 123.024 83.8888 122.992C83.2601 122.782 83.1956 122.039 82.8329 121.587V121.579Z" fill="#EFEFED"/>
<path d="M107.344 87.9617C107.199 88.0586 107.256 88.2847 107.409 88.3089C107.562 88.3493 107.667 88.2281 107.618 88.1878C107.667 88.0828 107.933 87.6467 108.037 87.4126C107.957 87.4206 107.876 87.6952 107.925 87.7921C107.941 87.8971 108.102 88.002 108.319 87.889C108.416 87.8405 108.448 87.7033 108.311 87.7679C108.013 87.8082 107.562 87.7679 107.344 87.9617ZM107.215 87.8648C107.522 87.3803 107.03 86.6939 107.779 86.3709C108.948 85.8783 109.827 87.3722 109.077 88.1878C108.706 88.4946 108.529 88.7046 107.925 88.9388C107.223 89.1003 106.917 88.3089 107.215 87.8648Z" fill="#EFEFED"/>
</g>
<defs>
<clipPath id="clip0_190_1553">
<rect width="302" height="167" fill="white"/>
</clipPath>
</defs>
</svg>
