<svg width="310" height="68" viewBox="0 0 310 68" fill="none" xmlns="http://www.w3.org/2000/svg">
<g clip-path="url(#clip0_190_1791)">
<path d="M35.7456 66.6423C37.1646 66.6423 38.0184 65.8811 38.248 64.9075L39.5552 65.2438C39.1077 67.1025 37.6003 67.9699 35.7515 67.9994H35.6749C33.5729 67.9994 31.8359 66.7308 31.8359 63.9987C31.8359 61.2667 33.567 59.998 35.6749 59.998H35.7515C37.5945 60.0335 39.1077 60.895 39.5552 62.7537L38.248 63.09C37.9772 62.1164 37.1411 61.3493 35.7456 61.3493C34.1146 61.3493 33.1843 62.3819 33.1843 63.9928C33.1843 65.6037 34.1912 66.6364 35.7456 66.6364V66.6423Z" fill="#EFEFED"/>
<path d="M49.1366 67.9994C46.9462 67.9994 45.1562 66.7131 45.1562 63.9987C45.1562 61.2844 46.9815 59.998 49.0718 59.998H49.1366C51.3387 60.0335 53.1287 61.2844 53.1287 63.9987C53.1287 66.7131 51.3387 67.9994 49.1366 67.9994ZM49.1366 61.2549H49.0836C47.8412 61.2549 46.5105 62.2403 46.5105 63.9987C46.5105 65.7572 47.8059 66.7426 49.1366 66.7426C50.5674 66.7426 51.7744 65.7336 51.7744 63.9987C51.7744 62.2639 50.4908 61.2549 49.1366 61.2549Z" fill="#EFEFED"/>
<path d="M63.1522 67.9994C60.9618 67.9994 59.1719 66.7131 59.1719 63.9987C59.1719 61.2844 60.9972 59.998 63.0874 59.998H63.1522C65.3543 60.0335 67.1443 61.2844 67.1443 63.9987C67.1443 66.7131 65.3543 67.9994 63.1522 67.9994ZM63.1522 61.2549H63.0992C61.8568 61.2549 60.5261 62.2403 60.5261 63.9987C60.5261 65.7572 61.8215 66.7426 63.1522 66.7426C64.583 66.7426 65.79 65.7336 65.79 63.9987C65.79 62.2639 64.5065 61.2549 63.1522 61.2549Z" fill="#EFEFED"/>
<path d="M79.3035 62.6056C79.3035 63.8743 78.2318 65.1843 76.4419 65.1843H74.0808V67.9222H72.7383V60.0742H76.4419C78.2318 60.0742 79.3035 60.9475 79.3035 62.6056ZM76.277 64.0985C77.1367 64.0985 77.9551 63.4258 77.9551 62.641C77.9551 61.6556 77.1484 61.219 76.277 61.219H74.0866V64.0985H76.277Z" fill="#EFEFED"/>
<path d="M91.1751 61.3311H86.2409V63.5616H90.9278V64.6355H86.2409V66.6653H91.1751V67.9222H84.8984V60.0742H91.1751V61.3311Z" fill="#EFEFED"/>
<path d="M103.662 65.8038L103.674 67.9222H102.32V65.8569C102.32 65.3967 102.049 65.1724 101.46 65.1724L98.1277 65.1843V67.9222H96.7734V60.0742H100.724C102.514 60.0742 103.586 60.7705 103.586 62.2811C103.586 63.0895 103.262 63.3786 102.891 63.6619C102.632 63.9215 102.031 64.0867 101.649 64.1457V64.1693C101.973 64.1221 102.379 64.0926 102.397 64.0926C102.608 64.0926 102.82 64.1457 102.991 64.2519C103.35 64.4644 103.662 64.7653 103.662 65.8097V65.8038ZM98.1218 61.219V64.0218H100.395C101.478 64.0218 102.373 63.4612 102.373 62.6233C102.373 61.5494 101.678 61.219 100.583 61.219H98.1218Z" fill="#EFEFED"/>
<path d="M115.542 67.9222L114.895 66.1874H111.379L110.72 67.9222H109.266L112.216 60.0742H114.082L117.038 67.9222H115.536H115.542ZM113.14 61.4196L111.786 65.0308H112.916C113.228 65.0308 113.746 65.0544 114.2 65.0839C114.388 65.1193 114.571 65.3082 114.712 65.6445L113.134 61.4196H113.14Z" fill="#EFEFED"/>
<path d="M125.03 67.9222H123.688V61.3311H120.844V60.0742H127.868V61.3311H125.407C125.183 61.3311 124.936 61.219 124.771 61.0478L124.748 61.0714C124.918 61.2426 125.024 61.4845 125.024 61.7087V67.9163L125.03 67.9222Z" fill="#EFEFED"/>
<path d="M133.465 60.0742H134.807V67.9222H133.465V60.0742Z" fill="#EFEFED"/>
<path d="M144.387 67.9994C142.196 67.9994 140.406 66.7131 140.406 63.9987C140.406 61.2844 142.232 59.998 144.322 59.998H144.387C146.589 60.0335 148.379 61.2844 148.379 63.9987C148.379 66.7131 146.589 67.9994 144.387 67.9994ZM144.387 61.2549H144.334C143.091 61.2549 141.76 62.2403 141.76 63.9987C141.76 65.7572 143.056 66.7426 144.387 66.7426C145.817 66.7426 147.024 65.7336 147.024 63.9987C147.024 62.2639 145.741 61.2549 144.387 61.2549Z" fill="#EFEFED"/>
<path d="M159.802 60.0742H161.144V67.9222H159.743L155.627 62.5643C155.451 62.3283 155.256 61.9802 155.168 61.6792L155.144 61.691C155.233 61.9684 155.315 62.3637 155.315 62.6646V67.9222H153.973V60.0742H155.368L159.484 65.4911C159.672 65.7271 159.855 66.0989 159.943 66.3762H159.967C159.878 66.0753 159.802 65.6917 159.802 65.3908V60.0801V60.0742Z" fill="#EFEFED"/>
<path d="M182.61 63.9982C182.61 66.6653 180.797 67.9222 178.63 67.9222H175.238V60.0742H178.63C180.802 60.0742 182.61 61.3311 182.61 63.9982ZM178.718 66.6653C179.872 66.6653 181.256 65.9395 181.256 63.9982C181.256 62.0569 179.89 61.3311 178.718 61.3311H175.998C176.333 61.3311 176.593 61.3842 176.593 61.6792V66.6653H178.718Z" fill="#EFEFED"/>
<path d="M189.413 60.2461L189.225 62.9368H188.618L188.441 60.2461H189.413Z" fill="#EFEFED"/>
<path d="M201.507 67.9222L200.859 66.1874H197.344L196.685 67.9222H195.23L198.18 60.0742H200.047L203.003 67.9222H201.501H201.507ZM199.099 61.4196L197.745 65.0308H198.875C199.187 65.0308 199.705 65.0544 200.159 65.0839C200.347 65.1193 200.53 65.3082 200.671 65.6445L199.093 61.4196H199.099Z" fill="#EFEFED"/>
<path d="M215.491 65.8038L215.502 67.9222H214.148V65.8569C214.148 65.3967 213.877 65.1724 213.288 65.1724L209.956 65.1843V67.9222H208.602V60.0742H212.552C214.342 60.0742 215.414 60.7705 215.414 62.2811C215.414 63.0895 215.09 63.3786 214.719 63.6619C214.46 63.9215 213.86 64.0867 213.477 64.1457V64.1693C213.801 64.1221 214.207 64.0926 214.225 64.0926C214.437 64.0926 214.649 64.1457 214.819 64.2519C215.179 64.4644 215.491 64.7653 215.491 65.8097V65.8038ZM209.95 61.219V64.0218H212.223C213.306 64.0218 214.201 63.4612 214.201 62.6233C214.201 61.5494 213.506 61.219 212.411 61.219H209.95Z" fill="#EFEFED"/>
<path d="M224.94 67.9222H223.598V61.3311H220.754V60.0742H227.778V61.3311H225.317C225.093 61.3311 224.846 61.219 224.681 61.0478L224.658 61.0714C224.828 61.2426 224.934 61.4845 224.934 61.7087V67.9163L224.94 67.9222Z" fill="#EFEFED"/>
<path d="M233.379 60.0742H234.721V67.9222H233.379V60.0742Z" fill="#EFEFED"/>
<path d="M241.62 65.4565C241.667 66.2767 242.438 66.7133 243.633 66.7251H243.698C245.029 66.7251 245.847 66.3239 245.847 65.4565C245.847 63.8338 240.413 65.2204 240.413 62.3645C240.413 60.671 241.932 59.9629 243.633 59.9629H243.733C245.459 59.9983 246.789 60.671 246.878 62.2052L245.6 62.3173C245.547 61.5915 244.976 61.2197 243.733 61.2197C242.491 61.2197 241.755 61.621 241.755 62.3527C241.755 63.8338 247.19 62.4412 247.19 65.4152C247.19 66.5009 246.495 67.982 243.657 67.982C241.06 67.982 240.371 66.7605 240.312 65.5627L241.62 65.4624V65.4565Z" fill="#EFEFED"/>
<path d="M258.613 67.9222L257.965 66.1874H254.45L253.79 67.9222H252.336L255.286 60.0742H257.152L260.108 67.9222H258.607H258.613ZM256.21 61.4196L254.856 65.0308H255.987C256.299 65.0308 256.817 65.0544 257.27 65.0839C257.459 65.1193 257.641 65.3082 257.782 65.6445L256.204 61.4196H256.21Z" fill="#EFEFED"/>
<path d="M271.54 60.0742H272.883V67.9222H271.481L267.365 62.5643C267.189 62.3283 266.995 61.9802 266.906 61.6792L266.883 61.691C266.971 61.9684 267.053 62.3637 267.053 62.6646V67.9222H265.711V60.0742H267.106L271.222 65.4911C271.411 65.7271 271.593 66.0989 271.681 66.3762H271.705C271.617 66.0753 271.54 65.6917 271.54 65.3908V60.0801V60.0742Z" fill="#EFEFED"/>
<path d="M279.784 65.4565C279.831 66.2767 280.602 66.7133 281.797 66.7251H281.862C283.193 66.7251 284.011 66.3239 284.011 65.4565C284.011 63.8338 278.577 65.2204 278.577 62.3645C278.577 60.671 280.096 59.9629 281.797 59.9629H281.898C283.623 59.9983 284.953 60.671 285.042 62.2052L283.764 62.3173C283.711 61.5915 283.14 61.2197 281.898 61.2197C280.655 61.2197 279.919 61.621 279.919 62.3527C279.919 63.8338 285.354 62.4412 285.354 65.4152C285.354 66.5009 284.659 67.982 281.821 67.982C279.224 67.982 278.535 66.7605 278.477 65.5627L279.784 65.4624V65.4565Z" fill="#EFEFED"/>
<path d="M112.048 38.0833C120.186 38.0833 125.055 33.7168 126.403 28.1288L133.899 30.0583C131.338 40.7209 122.682 45.6657 112.107 45.8546H111.66C99.6128 45.8546 89.6797 38.5967 89.6797 22.9243C89.6797 7.252 99.6128 0 111.66 0H112.107C122.682 0.194724 131.332 5.13954 133.899 15.8022L126.403 17.7317C124.867 12.1437 120.056 7.77716 112.048 7.77716C102.692 7.77716 97.3754 13.6838 97.3754 22.9361C97.3754 32.1885 103.146 38.0951 112.048 38.0951V38.0833Z" fill="#EFEFED"/>
<path d="M159.277 45.8546C146.718 45.8546 136.461 38.4669 136.461 22.9243C136.461 7.38181 146.906 0 158.889 0H159.271C171.895 0.194724 182.152 7.38771 182.152 22.9302C182.152 38.4728 171.895 45.8605 159.271 45.8605L159.277 45.8546ZM159.265 2.4075H158.865C150.015 2.4075 140.53 9.77751 140.53 22.9302C140.53 36.083 149.78 43.453 159.265 43.453C169.469 43.453 178.078 35.9118 178.078 22.9302C178.078 9.94863 168.91 2.4075 159.265 2.4075Z" fill="#EFEFED"/>
<path d="M206.246 45.8546C193.687 45.8546 183.43 38.4669 183.43 22.9243C183.43 7.38181 193.881 0 205.863 0H206.246C218.87 0.194724 229.127 7.38771 229.127 22.9302C229.127 38.4728 218.87 45.8605 206.246 45.8605V45.8546ZM206.246 7.19299H205.928C198.815 7.19299 191.19 12.8459 191.19 22.9302C191.19 33.0146 198.627 38.6675 206.252 38.6675C214.454 38.6675 221.378 32.8907 221.378 22.9302C221.378 12.9698 214.006 7.19299 206.252 7.19299H206.246Z" fill="#EFEFED"/>
<path d="M270.584 14.965C270.584 22.2229 264.431 29.7345 254.179 29.7345H240.655V45.4069H232.965V0.449219H254.179C264.431 0.449219 270.584 5.45894 270.584 14.965ZM253.22 23.5093C258.154 23.5093 262.835 19.6561 262.835 15.1597C262.835 9.50684 258.219 7.00493 253.22 7.00493H240.661V23.5093H253.22Z" fill="#EFEFED"/>
<path d="M301.409 45.4069L297.694 35.4523H277.569L273.789 45.4069H265.457L282.379 0.449219H293.084L310 45.4069H301.415H301.409ZM287.631 8.15557L279.877 28.8376H286.348C288.144 28.8376 291.088 28.9674 293.72 29.1563C294.809 29.351 295.833 30.4426 296.67 32.3663L287.631 8.15557Z" fill="#EFEFED"/>
<path d="M33.3558 38.2785V45.4774H0V0.484375H7.69568V35.8356C7.69568 37.3167 6.98912 38.9217 5.9646 39.9484L6.02936 40.0134C7.05388 38.9866 8.66132 38.2785 10.1333 38.2785H33.3499H33.3558Z" fill="#EFEFED"/>
<path d="M71.7749 45.4774L68.0536 35.517H47.9165L44.1304 45.4774H35.793L52.727 0.484375H63.4374L80.3714 45.4774H71.7749ZM57.985 8.19663L50.2246 28.8964H56.7014C58.4973 28.8964 61.4472 29.0262 64.0792 29.215C65.1685 29.4097 66.193 30.5014 67.0291 32.4309L57.985 8.19663Z" fill="#EFEFED"/>
<path d="M156.368 7.96656C156.303 8.01966 156.309 7.99606 156.262 8.01376C156.15 8.04327 155.914 8.11408 155.796 8.14948C154.554 8.53893 153.482 9.30012 152.452 10.079L152.487 9.9551C152.623 10.2737 152.281 10.4626 152.105 10.6691C151.981 10.7989 151.928 10.8284 151.963 10.911C152.057 11.1175 152.269 11.3536 152.458 11.5483L153.041 12.1738C153.27 12.3744 153.547 12.7816 153.259 13.0943V12.9055C155.125 14.9471 156.909 17.0714 158.705 19.1838C159.141 19.6972 160.301 21.0603 160.725 21.5618C161.225 22.0752 163.81 24.6951 164.364 25.2498C166.942 27.6337 168.709 30.6608 171.094 33.1686C171.647 33.7822 172.254 34.2602 172.836 34.7795C172.925 34.8857 173.013 35.0509 173.019 35.2338C172.995 35.8475 172.719 35.9419 172.518 36.3904C172.153 37.2637 170.452 37.5351 170.063 37.6236C169.468 37.8656 169.033 37.2637 168.862 36.8152C168.444 35.2869 167.478 34.3015 166.365 33.204C164.269 30.9027 162.309 28.5778 160.354 26.129C157.722 22.9898 154.678 19.5084 151.963 16.3692C151.663 16.0211 151.068 15.313 150.78 14.953L151.698 14.9117C151.604 15.0297 151.575 15.0415 151.516 15.0828C150.409 15.6493 149.802 13.9027 149.178 13.4778C149.06 13.5073 148.695 13.826 148.601 13.9381C148.507 14.0266 148.519 14.0974 148.536 13.9381C148.536 13.8673 148.501 13.767 148.454 13.7257L148.489 13.767C149.125 14.5636 148.113 15.2304 147.659 15.726L147.382 16.0034C146.988 16.5285 146.246 16.322 145.922 15.9679L145.61 15.6611C144.633 14.6993 143.914 14.1977 145.257 13.0766L145.881 12.4806L145.846 12.5219C146.175 12.1502 146.576 12.0971 146.982 12.044C147.17 11.9732 147.318 11.7725 147.435 11.6014C147.5 11.4775 147.482 11.4952 147.5 11.2592C147.512 11.0939 147.583 10.8933 147.683 10.7576C148.966 9.17621 150.792 8.36781 152.67 7.86625C153.583 7.60661 154.501 7.35878 155.443 7.21127C155.902 7.16406 156.238 7.5181 156.362 7.94886L156.368 7.96656ZM156.262 7.91935C156.161 7.86625 156.061 7.62432 155.938 7.54761C155.82 7.43549 155.602 7.41779 155.484 7.44139C153.706 7.91345 151.857 8.48582 150.279 9.40634C149.514 9.87249 148.778 10.5039 148.283 11.1707C148.177 11.3595 148.283 11.4657 148.195 11.7607C148.095 12.0558 147.924 12.2859 147.706 12.516C147.541 12.6812 147.294 12.8288 147.047 12.8701C146.817 12.8878 146.617 12.9468 146.505 13.0825C146.287 13.3303 145.587 14.003 145.439 14.2213C145.439 14.2331 145.451 14.1977 145.439 14.1623C145.439 14.1269 145.428 14.1328 145.451 14.1623C145.557 14.3216 146.116 14.835 146.275 14.9766C146.364 15.0415 146.64 15.3484 146.723 15.3543C146.723 15.3543 146.635 15.3425 146.588 15.4192C146.905 15.0533 147.394 14.5872 147.665 14.2449C147.665 14.2331 147.63 14.3334 147.653 14.4102C147.677 14.481 147.671 14.4456 147.636 14.4043L147.671 14.4456C147.565 14.3275 147.488 14.1387 147.488 13.9735C147.482 13.6608 147.659 13.4247 147.812 13.2418C148.224 12.8406 148.407 12.5396 149.049 12.398C150.179 12.2918 150.521 13.525 151.233 14.0561C151.08 14.003 150.88 14.0561 150.762 14.2272L151.681 14.1859C154.907 17.9565 158.152 21.5618 161.261 25.4799C163.098 27.8697 165.058 30.2949 167.066 32.5726C168.138 33.6229 169.321 34.9742 169.686 36.4966C169.745 36.6441 169.804 36.768 169.881 36.8388C169.816 36.8329 169.845 36.8093 169.716 36.8565C170.069 36.7562 170.44 36.6913 170.787 36.5851C171.099 36.4966 171.441 36.3845 171.6 36.2665C171.8 36.113 171.941 35.7472 172.112 35.5289C172.206 35.399 172.248 35.2751 172.236 35.2987C172.254 35.3341 172.224 35.2574 172.112 35.1807C168.862 32.4782 166.984 28.5542 163.945 25.6864L161.072 22.6653C160.678 22.2699 160.042 21.5441 159.7 21.1016C157.51 18.4345 155.331 15.6906 153.058 13.0943C152.935 12.935 153.2 12.8465 153.094 12.6576C152.729 12.1089 152.052 11.6191 151.757 10.9936C151.669 10.8225 151.846 10.6101 151.963 10.5216C152.005 10.4685 152.317 10.2206 152.317 10.1439C152.334 10.0672 152.264 9.97871 152.34 9.9256C152.947 9.48305 153.565 9.06409 154.213 8.69235C154.848 8.3324 155.537 8.07867 156.238 7.90755L156.273 7.90165C156.279 7.90755 156.315 7.87215 156.273 7.92525L156.262 7.91935Z" fill="#EFEFED"/>
<path d="M170.288 9.58148L170.305 9.81161C170.311 10.1125 170.4 10.3663 170.305 10.4135L169.575 10.7439L169.622 10.6731L169.681 11.4697C169.681 11.5051 169.664 11.5405 169.634 11.5523L168.904 11.8828L168.957 11.7943L169.016 12.5909C169.016 12.6322 168.992 12.6735 168.957 12.6912L168.227 13.0216L168.292 12.9154L168.351 13.712C168.351 13.7592 168.321 13.8064 168.28 13.8241L167.55 14.1545L167.626 14.0306L167.685 14.8272C167.685 14.8862 167.656 14.9334 167.603 14.957L166.873 15.2875L166.955 15.1518L167.014 15.9484C167.014 16.0133 166.979 16.0723 166.926 16.0959L166.195 16.4263L166.29 16.2729L166.349 17.0695C166.349 17.1403 166.313 17.2052 166.248 17.2347L165.518 17.5652L165.624 17.394L165.683 18.1906C165.683 18.2674 165.642 18.3382 165.571 18.3677L164.841 18.6981L164.953 18.5093L165.012 19.3059C165.018 19.3944 164.971 19.4711 164.894 19.5006L164.164 19.831L164.288 19.6304L164.347 20.427C164.353 20.5214 164.3 20.604 164.217 20.6394L163.487 20.9699L163.622 20.7516L163.681 21.5482C163.687 21.6485 163.634 21.737 163.546 21.7724C163.546 21.7724 162.816 22.1028 162.81 22.1028L162.951 21.8668L163.01 22.6634C163.016 22.7696 162.957 22.8699 162.863 22.9053L162.133 23.2358L162.286 22.982L162.345 23.7786C162.351 23.8907 162.286 23.9911 162.192 24.0383C162.192 24.0383 161.461 24.3687 161.456 24.3687L161.62 24.1032L161.679 24.8998C161.685 25.0237 161.615 25.1299 161.509 25.1771L160.778 25.5075L160.949 25.2243L161.008 26.0209C161.02 26.1507 160.943 26.2628 160.831 26.31L160.101 26.6346L160.284 26.3395L160.337 27.1361C160.349 27.2719 160.266 27.3899 160.154 27.4371L159.424 27.7616L159.613 27.4548L159.666 28.2514C159.677 28.3871 159.595 28.511 159.477 28.5641C159.477 28.5641 158.747 28.8887 158.741 28.8946L158.935 28.57L158.988 29.3666C159 29.5082 158.912 29.6381 158.788 29.6971L158.058 30.0216L158.264 29.6853L158.317 30.4819C158.329 30.6294 158.241 30.7651 158.111 30.8241L157.381 31.1486L157.593 30.8005L157.646 31.5971C157.658 31.7505 157.564 31.8921 157.434 31.9511L156.704 32.2757L156.922 31.9157L156.975 32.7123C156.987 32.8717 156.892 33.0133 156.757 33.0723C156.757 33.0723 156.027 33.3968 156.021 33.4027L156.245 33.031L156.298 33.8276C156.309 33.9928 156.215 34.1403 156.074 34.1993C156.074 34.1993 155.344 34.5239 155.338 34.5298L155.573 34.1462L155.626 34.9428C155.638 35.1139 155.538 35.2674 155.391 35.3323L154.661 35.6568L154.896 35.35L154.761 36.241C154.726 36.5242 154.384 36.6835 154.143 36.5301C154.137 36.5301 153.442 36.0935 153.436 36.0935C153.283 36.0049 153 35.8161 152.847 35.7335C152.835 35.7217 152.8 35.7158 152.877 35.7335C152.9 35.7453 153.077 35.7394 153.153 35.6686C153.212 35.6214 153.195 35.6332 153.183 35.6509C152.364 36.5537 151.334 37.7339 150.533 38.6485C150.204 39.0379 149.768 39.5277 149.185 39.2503C148.879 39.0674 148.79 38.9789 148.661 38.6426C148.573 38.3888 148.726 38.0584 148.814 37.9168C148.832 37.8814 148.861 37.8401 148.849 37.8342C148.855 37.7929 148.861 37.8932 148.843 37.8342C148.584 37.5273 147.99 37.0789 147.719 36.6835C147.095 35.9105 146.741 35.0018 146.412 34.0872C146.388 34.0577 146.382 34.0577 146.37 34.0518C146.365 34.0518 146.341 34.0518 146.3 34.0636C146.276 34.0754 146.264 34.0813 146.217 34.1049C145.193 34.7245 144.056 33.4381 144.945 32.5766C145.481 31.9865 147.383 29.8387 147.954 29.2073C148.137 29.0185 149.079 27.8914 149.256 27.7557C149.379 27.6495 149.579 27.5728 149.75 27.5905C150.05 27.6259 150.18 27.7675 150.027 27.6731C149.921 27.6082 149.621 27.6436 149.544 27.7262C149.503 27.7616 149.503 27.7616 149.532 27.7262L149.668 27.5728C153.477 23.2653 157.399 19.0521 161.308 14.8272C162.875 13.1986 166.543 9.22154 168.086 7.65784C169.028 6.61341 170.288 8.39543 170.994 8.9678C171.035 9.00911 171.03 9.08582 170.977 9.11532L170.241 9.52247L170.288 9.58148ZM170.182 9.52247L170.924 9.00321L170.912 9.15663C170.394 8.82029 168.951 7.21529 168.456 8.00009C167.079 9.66409 163.505 13.7946 162.044 15.5058C158.211 19.8901 154.396 24.292 150.463 28.5877C150.333 28.7825 149.903 28.9772 149.632 28.8356C149.415 28.7116 149.491 28.8002 149.721 28.8356C149.968 28.8356 150.009 28.7529 150.033 28.747C149.073 29.8328 147.106 31.9452 146.064 33.0605L145.782 33.3614C145.681 33.4735 145.746 33.4204 145.74 33.3614C145.74 33.2847 145.699 33.2434 145.693 33.2493C145.764 33.2375 145.882 33.1431 145.994 33.1195C146.718 32.854 147.383 33.3673 147.524 34.0754C147.754 34.8012 148.072 35.527 148.525 36.1289C148.955 36.8074 150.298 37.4211 149.668 38.4242L149.597 38.5482C149.597 38.56 149.609 38.5128 149.597 38.4655C149.579 38.4183 149.574 38.4183 149.597 38.4478C149.638 38.4951 149.621 38.4714 149.597 38.4655C149.585 38.4596 149.568 38.4596 149.55 38.4655C150.292 37.6453 151.858 35.9105 152.588 35.1375C152.9 34.7717 153.283 35.0372 153.566 35.226C153.783 35.3736 154.372 35.7394 154.602 35.8928L153.984 36.1761L154.131 35.291C154.154 35.1493 154.249 35.0372 154.366 34.9841L155.102 34.6714L154.867 35.0608L154.826 34.2642C154.814 34.0931 154.914 33.9456 155.061 33.8807L155.797 33.5679L155.568 33.9456L155.526 33.1431C155.52 32.9838 155.615 32.8363 155.75 32.7772L156.486 32.4645L156.262 32.8303L156.221 32.0338C156.209 31.8744 156.304 31.7328 156.439 31.6738L157.175 31.3552L156.963 31.7092L156.922 30.9126C156.91 30.7592 156.998 30.6235 157.134 30.5645L157.87 30.2517L157.664 30.594L157.622 29.7974C157.611 29.6499 157.699 29.52 157.829 29.461L158.565 29.1424L158.364 29.4728L158.323 28.6703C158.317 28.5287 158.4 28.4048 158.517 28.3517L159.253 28.0331L159.059 28.3458L159.018 27.5433C159.012 27.4076 159.089 27.2896 159.206 27.2365L159.942 26.9178L159.76 27.2188L159.719 26.4222C159.707 26.2923 159.783 26.1743 159.901 26.1271L160.637 25.8085L160.46 26.0976L160.419 25.2951C160.413 25.1712 160.484 25.065 160.59 25.0178L161.326 24.705L161.155 24.9824L161.114 24.1858C161.108 24.0678 161.173 23.9616 161.279 23.9203L162.015 23.6075L161.856 23.8671L161.815 23.0646C161.815 22.9525 161.874 22.8581 161.968 22.8168L162.704 22.5041L162.557 22.746L162.515 21.9494C162.51 21.8432 162.568 21.7547 162.657 21.7134L163.393 21.4006L163.251 21.6308L163.21 20.8342C163.204 20.7398 163.257 20.6512 163.346 20.6158L164.082 20.3031L163.952 20.5155L163.911 19.713C163.911 19.6245 163.958 19.5478 164.035 19.5124L164.771 19.1997L164.653 19.3944L164.612 18.5919C164.612 18.5093 164.653 18.4385 164.723 18.409L165.459 18.0962L165.348 18.2733L165.306 17.4767C165.306 17.3999 165.348 17.335 165.412 17.3055L166.148 16.9928L166.048 17.158L166.007 16.3555C166.007 16.2906 166.042 16.2257 166.101 16.2021L166.837 15.8894L166.749 16.0369L166.708 15.2344C166.708 15.1754 166.743 15.1164 166.79 15.0987L167.526 14.7859L167.45 14.9157L167.408 14.1132C167.408 14.0601 167.438 14.0129 167.485 13.9893L168.221 13.6766L168.15 13.7887L168.109 12.9862C168.109 12.939 168.133 12.8977 168.174 12.88L168.91 12.5672L168.851 12.6676L168.81 11.8651C168.81 11.8238 168.833 11.7884 168.863 11.7766L169.599 11.4638L169.552 11.5464L169.51 10.7439C169.51 10.7144 169.528 10.6849 169.558 10.6672L170.294 10.3545L170.252 10.4194L170.217 9.58738L170.182 9.52247Z" fill="#EFEFED"/>
<path d="M150.155 34.5773C150.385 34.9313 150.638 35.8518 151.145 35.3325C151.38 35.0493 151.939 34.5418 151.804 34.1701C151.674 33.7866 151.256 33.3086 150.974 32.8247C150.556 32.2052 150.208 31.4027 149.643 30.9955C149.537 30.9601 149.584 30.9955 149.478 31.0722C149.319 31.2079 149.213 31.3732 149.084 31.5502C148.948 31.7272 148.766 32.034 148.766 32.0104C148.766 31.9868 148.754 31.9396 148.742 31.916C149.325 32.8365 149.655 33.6036 150.155 34.5714V34.5773ZM150.055 34.6422C149.519 33.763 148.636 33.3086 147.883 32.6418C147.682 32.4471 147.565 32.1107 147.606 31.8275C147.912 30.7241 149.072 29.3433 150.226 30.134C150.986 30.7831 151.221 31.6623 151.645 32.4589C151.91 33.1434 152.634 33.822 152.305 34.6304C152.028 35.0552 151.692 35.2676 151.286 35.545C151.156 35.6158 151.009 35.6984 150.827 35.6748C150.367 35.5214 150.32 34.9785 150.055 34.6481V34.6422Z" fill="#EFEFED"/>
<path d="M167.96 10.0759C167.854 10.1467 167.896 10.312 168.008 10.3297C168.119 10.3592 168.196 10.2707 168.161 10.2411C168.196 10.1644 168.39 9.8458 168.467 9.67468C168.408 9.68058 168.349 9.8812 168.384 9.95201C168.396 10.0287 168.514 10.1054 168.673 10.0228C168.744 9.98741 168.767 9.8871 168.667 9.93431C168.449 9.96381 168.119 9.93431 167.96 10.0759ZM167.872 10.0051C168.096 9.65107 167.737 9.14951 168.284 8.91348C168.92 8.66565 169.462 9.15541 169.432 9.75139C169.421 9.94611 169.332 10.1349 169.232 10.2411C168.961 10.4654 168.832 10.6188 168.39 10.7958C167.878 10.9138 167.654 10.3356 167.872 10.011V10.0051Z" fill="#EFEFED"/>
</g>
<defs>
<clipPath id="clip0_190_1791">
<rect width="310" height="68" fill="white"/>
</clipPath>
</defs>
</svg>
